<svg height='100px' width='100px'  fill="#000000" xmlns="http://www.w3.org/2000/svg" viewBox="0 0 128 128" x="0px" y="0px"><g><path d="M122.269,31.027c6.626,8.868-7.464,16.447-13.8,19.75-.819.426-1.645.851-2.465,1.271a7.68,7.68,0,0,1,5.362,2.331,3.683,3.683,0,0,1,2.649,3.075c.439,2.363-2.382,10.03-5.495,8.2a.751.751,0,0,1-.311.051c-3.284-.254-6.124-.966-6.886-4.618-.019-.115-.038-.236-.064-.35-2.255-1.264-4.917-1.48-7.382-2.16a1.038,1.038,0,0,1-.374-.19c-1.862.991-3.717,2.007-5.533,3.081C81.581,65.242,75.3,69.194,68.92,72.98A207.454,207.454,0,0,1,48.363,84a46.8,46.8,0,0,1-11.034,3.558c.19,1.048,2.293,1.779,3.309,2.185a8.322,8.322,0,0,1,4.117-2.725A.941.941,0,0,1,45.231,87a12.577,12.577,0,0,1,6.054,1.937c2.192,1.462,3.443,3.018,3.208,5.591a14.069,14.069,0,0,1-2.414,7.445c-3.043,4.059-8.188,1.042-11.682-.61a.778.778,0,0,1-.458-.953A13.748,13.748,0,0,1,38.9,96.2c-2.986-1.651-5.927-3.862-9.218-4.815-1.778-.521-3.608-.743-5.4-1.213a23.257,23.257,0,0,1-2.249-.673c-.96,1.632-2.764,2.985-4.587,2.464-2.534,0-5.863-.019-7.693-2.109-1.836-2.115-.972-4.021-.26-6.372-.47-.171-.953-.336-1.41-.52-2.612-1.042-5.464-4.771-3.355-7.446a.8.8,0,0,1,.521-.317c1.15-1.976,3.824-4.015,4.758-4.917,4.8-4.618,9.186-9.2,15.336-12.089,3.919-1.836,8-3.1,12.038-4.644,4.688-1.8,9.262-3.856,13.874-5.832,4.828-2.045,9.713-3.716,14.7-5.33a58.105,58.105,0,0,0,14.75-7.216,69.689,69.689,0,0,0,7.967-5.749,52.439,52.439,0,0,1,4.307-3.786c3.3-2.395,6.6-2.516,10.545-1.766,5.622,1.061,13.887,1.937,17.921,6.486.089.1.158.2.235.292A.987.987,0,0,1,122.269,31.027ZM106.5,46.483c3.417-1.779,19.331-10.4,12.813-15.6-2.478-1.975-5.775-2.839-8.8-3.545-3.373-.787-6.88-1.88-10.342-1.994-5.139-.172-7.75,3.583-11.441,6.486a108.5,108.5,0,0,1-11.1,7.553c-7.788,4.714-17.057,6.442-25.4,9.974-5.844,2.509-11.632,5.158-17.66,7.21-5.819,1.982-11.88,4.383-16.536,8.531-2.821,2.516-5.514,5.337-8.182,8.017-.292.3-3.513,3.513-3.195,3.761a12.98,12.98,0,0,0,4.059,1.747,124.079,124.079,0,0,0,14.877,3.691c11.067,2.014,20.6-2.166,30.182-7.261,8.614-4.574,16.872-9.745,25.207-14.8S97.881,50.974,106.5,46.483Zm15.475-10.094c-1.665,3.341-5.673,6.466-7.9,7.966-7.515,5.075-16.25,8.2-24.076,12.756-8.436,4.91-16.65,10.189-25.112,15.062C57.022,76.7,48.331,82.235,39.311,84.039c-6.937,1.385-13.29.343-20.062-1.2-3.99-.915-9.37-1.569-12.966-3.9a5.183,5.183,0,0,0,1.741,1.874,21.281,21.281,0,0,0,4.034,1.417c2.954.819,5.927,1.531,8.913,2.2,6.378,1.43,12.508,2.427,18.962.68,11.733-3.176,22.736-10.532,33.034-16.8C83.3,62.028,93.651,56.158,104.45,50.7,109.043,48.382,121.246,42.932,121.971,36.389ZM108.992,63.552c1.391,1.646,3.221-4.084,3.2-5.031-.064-3.494-3.373-2.636-3.843.2a10.2,10.2,0,0,0,.406,4.631A.887.887,0,0,1,108.992,63.552Zm-.476-8.614c.1-.063.2-.121.3-.171a7.128,7.128,0,0,0-3.888-.82c-1.988,1.461-2.389,4.352-1.766,6.632.61,2.243,1.88,2.84,3.71,3.088C106.064,60.713,105.746,56.717,108.516,54.938Zm-6.111-1.08c-.6.3-1.2.6-1.8.9q.467.361.972.686A6.556,6.556,0,0,1,102.405,53.858Zm-1.347,4.663a9.773,9.773,0,0,1,.063-1.137,15.21,15.21,0,0,1-2.369-1.7q-1.41.7-2.821,1.429A31.165,31.165,0,0,1,101.058,58.521Zm-50.23,41.972c.807-1.3,3.087-6.715.8-7.852-1.588-.782-3.633,1.734-4.263,2.884-1.4,2.579-.92,4.764,1.443,6.5A3.251,3.251,0,0,0,50.828,100.493Zm-4.86-6.334c.946-1.366,2.668-3.157,4.485-3.506A10.7,10.7,0,0,0,45.161,88.9c-4.828,1.582-5.279,6.683-3.462,10.844.025.057.038.108.057.165a28.72,28.72,0,0,0,4.155,1.881A6.231,6.231,0,0,1,45.968,94.159Zm-7.032-.12a8.96,8.96,0,0,1,.718-2.669c-1.62-.717-3.971-1.721-4.244-3.532a28.942,28.942,0,0,1-6.639.032c-2.547-.279-5.209-.692-7.87-1.226,1.2,1.76,6.409,2.179,7.909,2.516C32.494,90.005,35.683,92.164,38.936,94.039ZM20.323,88.658a3.116,3.116,0,0,1-1.589-2.478q-1.334-.3-2.668-.648v.013c-.324,1.391-.082,3.361,1.246,4.218S19.624,89.8,20.323,88.658ZM14.23,85.037a.019.019,0,0,1,.007-.013c-1-.286-1.982-.584-2.948-.908-.559,1.67-1.588,3.652.35,4.853a7.593,7.593,0,0,0,3.373,1.01A6.329,6.329,0,0,1,14.23,85.037Z"></path><path d="M110.161,58.013a.952.952,0,0,1,.667,1.169c-.1.286-.222.565-.317.851a.97.97,0,0,1-1.176.661.948.948,0,0,1-.66-1.169c.095-.286.216-.566.317-.851A.96.96,0,0,1,110.161,58.013Z"></path><path d="M98.58,43.262a.96.96,0,0,1-.953.953,3.33,3.33,0,0,1-.616-.114,2.305,2.305,0,0,0-.444-.1.953.953,0,0,1,0-1.906,4,4,0,0,1,.768.114c.089.026.178.058.267.083.07.019.3.038.025.019A.973.973,0,0,1,98.58,43.262Z"></path><path d="M93.238,45.613c1.042.648.082,2.293-.966,1.645a1.628,1.628,0,0,0-1.385-.115c-1.175.363-1.677-1.479-.5-1.835A3.506,3.506,0,0,1,93.238,45.613Z"></path><path d="M91.44,42.411c0,.013-.248-.064-.286-.07a.615.615,0,0,1-.076-.013h-.114c-.217-.019-.75-.019-.75-.019a.953.953,0,1,1,0-1.906,5.211,5.211,0,0,1,2.065.343.933.933,0,1,1-.839,1.665Z"></path><path d="M86.885,43.288a.949.949,0,0,1,.337,1.3.97.97,0,0,1-1.3.343,2.221,2.221,0,0,0-1-.3.953.953,0,1,1,0-1.905A4.543,4.543,0,0,1,86.885,43.288Z"></path><path d="M50.72,97.043a1.347,1.347,0,0,1-1.271,1.271,1.643,1.643,0,0,1-.667-.184.449.449,0,0,1-.05-.026h.082a.753.753,0,0,1-.114-.019.952.952,0,0,1-.839-.934.988.988,0,0,1,.623-.9,1.346,1.346,0,0,1,1.01-.5A1.269,1.269,0,0,1,50.72,97.043Z"></path><path d="M48.725,98.1c.025.026-.057.006,0,0Z"></path><path d="M39.857,71.671a.952.952,0,0,1-.5,1.836c-.286-.1-.566-.216-.851-.318a.969.969,0,0,1-.661-1.175.955.955,0,0,1,1.169-.661C39.3,71.449,39.577,71.569,39.857,71.671Z"></path><path d="M35.111,70.178a.952.952,0,0,1-.959,1.645,3.212,3.212,0,0,0-.94-.33.952.952,0,1,1,.508-1.836A4.775,4.775,0,0,1,35.111,70.178Z"></path><path d="M32.253,77.541c0,.012-.343-.07-.229-.07-.159-.013-.3-.013-.464-.013a.953.953,0,0,1,0-1.906,3.686,3.686,0,0,1,1.646.343.951.951,0,0,1-.953,1.646Z"></path><path d="M26.326,73.983a.924.924,0,0,1,.152.509.955.955,0,0,1-.953.952,2.176,2.176,0,0,1-1.416-.6.957.957,0,0,1,0-1.346.935.935,0,0,1,1.118-.153.959.959,0,0,1,1.1.635Z"></path></g></svg>