<svg height='100px' width='100px'  fill="#000000" xmlns="http://www.w3.org/2000/svg" viewBox="0 0 128 128" x="0px" y="0px"><g><path d="M122.617,66.744c2.755,4.545,1.278,12.85-3.4,15.656-14.851,8.9-33.556,7.512-50.184,7.467-10.529-.032-21.064-.1-31.594-.128-7.409-.019-15,.55-22.4.064-4.9-.326-9.73-1.119-10.625-6.712a32.255,32.255,0,0,1-.185-9.046c.5-4.124,2.205-7.921,2.467-12.134.243-6.3,1.068-11.9,8.19-13.2a.972.972,0,0,1,1.08.441c3.586,7.064,13.962,7.243,20.432,4.686,6.488-2.557,8.106-8.9,9.8-15.017a.962.962,0,0,1,1.176-.665A28.416,28.416,0,0,1,59.8,44.925c2.717-.85,5.4,1.5,7.838,2.647,4.392,2.058,8.771,4.68,13.355,6.258,3.477,1.2,6.45,2.065,9.359,4.431,4.1,3.311,9.653,4.321,14.863,4.775,4.1.358,8.253.55,12.332,1.189C119.4,64.519,121.568,65.012,122.617,66.744Zm-3.229,13.093c1.809-2.078,3.951-8.439,2.091-11.571a7.493,7.493,0,0,1-2.219,2.077,22.089,22.089,0,0,1-3.279,1.72c-1.093.479-2.186.895-3.235,1.291l-1.547.608c-.524.185-1.042.364-1.554.543a68.594,68.594,0,0,1-11.366,2.979c-1.732.262-3.375.537-4.923.754s-3,.4-4.372.576-2.666.288-3.868.422c-1.2.108-2.321.243-3.356.313-2.084.121-3.849.224-5.319.307-1.47.038-2.647.019-3.567.019a12.191,12.191,0,0,1-2.628-.115,11.706,11.706,0,0,1,2.621-.256c.915-.051,2.084-.108,3.548-.185,1.458-.122,3.21-.269,5.281-.448,1.036-.089,2.148-.243,3.343-.377s2.481-.262,3.842-.466,2.813-.41,4.354-.627,3.165-.511,4.884-.786a69.786,69.786,0,0,0,11.194-2.992c.5-.179,1.017-.358,1.528-.537.518-.2,1.036-.409,1.566-.614,1.055-.409,2.123-.818,3.19-1.285a20.938,20.938,0,0,0,3.133-1.643,6.189,6.189,0,0,0,2.109-2.078,3.151,3.151,0,0,0-.664-.479c-.186-.1-.371-.192-.569-.281-2.372,5.024-10.082,6.38-14.864,7.6-10.407,2.64-21.39,3.509-32.105,3.676-11.871.191-23.7-.672-35.576-.307-6.022.185-12.051.256-18.073.454a33.592,33.592,0,0,1-7.032-.237,46.262,46.262,0,0,1-6-1.752c-.039.429-.071.851-.083,1.279A8.777,8.777,0,0,0,8.9,78.552a22.71,22.71,0,0,0,4.124.4q4.143.009,7.908.012c5.031.013,9.576.019,13.668.026,8.183.045,14.563.076,19.434.1,4.872.045,8.234.1,10.376.154a15.761,15.761,0,0,1,3.068.191,16.349,16.349,0,0,1-3.068.192c-2.142.058-5.5.115-10.376.16-4.871.025-11.251.077-19.434.122-4.1.006-8.637.057-13.668.057H13.011a21.35,21.35,0,0,1-4.3-.448,10.276,10.276,0,0,1-2.858-.99,21.349,21.349,0,0,0,.415,4.046c.716,3.478,2.622,4.584,6.023,5.044,6.968.94,14.339.173,21.352.185,10.542.026,21.077.09,31.619.128,5.638.02,11.309.141,16.967.077a14.516,14.516,0,0,0,.217-2.666c-.013-.875-.019-1.559-.032-2.084-.013-1.055.064-1.47.2-1.483s.294.377.48,1.426a17.111,17.111,0,0,1,.243,2.122A12.535,12.535,0,0,1,83.205,88c3.369-.051,6.738-.172,10.094-.428a72.647,72.647,0,0,0,14.064-2.237C111.084,84.286,116.729,82.886,119.388,79.837Zm-.843-13.528c-.384-.121-.781-.223-1.19-.313a7.517,7.517,0,0,1-2.084,2.449,13.99,13.99,0,0,1-2.742,1.63,32.131,32.131,0,0,1-5.632,1.847c-.927.218-1.829.429-2.73.62s-1.8.365-2.679.544-1.758.351-2.621.524c-.434.083-.863.179-1.291.249s-.857.128-1.279.186c-1.707.249-3.362.486-4.986.722-1.624.2-3.216.294-4.763.441-.773.071-1.54.134-2.3.2s-1.509.051-2.244.083q-2.214.057-4.315.115c-11.111,0-19.767-.1-26.377-.179s-11.175-.192-14.084-.307c-.383-.019-.741-.032-1.073-.045-1.106.1-2.685.192-4.833.275-2.526.09-5.85.167-10.12.013-1.068-.064-2.193-.128-3.382-.192q-1.783-.192-3.746-.4c-1.311-.166-2.679-.447-4.111-.684-1.157-.23-2.346-.556-3.58-.869-.122.575-.217,1.163-.294,1.751A30.1,30.1,0,0,0,13.228,76.9a62.349,62.349,0,0,0,6.917.032c5.224-.2,10.459-.211,15.688-.371,10.658-.332,21.244.307,31.895.307,10.733.007,21.742-.46,32.277-2.653A91.833,91.833,0,0,0,109.7,71.75C112.727,70.772,117.048,69.448,118.545,66.309Zm-6.822,2.021a9.032,9.032,0,0,0,3.58-2.653c-1.918-.211-3.893-.231-5.561-.358-4.546-.346-9.3-.537-13.675-1.95a20.123,20.123,0,0,1-4.776-2.014c.224,3.8,1.305,7.5,1.5,11.309.364-.058.729-.109,1.1-.166a7.3,7.3,0,0,1-.608-1.541c-.358-1.24-.409-2.308-.121-2.385s.8.851,1.157,2.085a7.139,7.139,0,0,1,.3,1.732c.454-.064.908-.134,1.368-.2.422-.057.844-.121,1.266-.185s.844-.166,1.266-.249c.85-.173,1.713-.352,2.583-.531s1.751-.358,2.64-.537,1.8-.4,2.691-.62A30.437,30.437,0,0,0,111.723,68.33Zm-20.84,4.609a53.522,53.522,0,0,0-.927-6.962c-1.535-.473-3.325-1.029-5.441-1.688l-3.26-1.035c-1.17-.365-2.442-.71-3.791-1.106-2.7-.806-5.76-1.573-9.161-2.89-.863-.294-1.694-.678-2.576-1.029s-1.784-.723-2.686-1.132l-5.728-2.519c-.505-.223-1.016-.454-1.534-.684s-1.067-.479-1.579-.76c-.173-.083-.339-.186-.505-.275C49.661,65.21,34.063,67.121,22.588,67.281A30.54,30.54,0,0,1,25.343,73.8c2.346.1,4.334.147,5.977.2,3.2.095,5.14.223,6.137.37,2.915-.108,7.41-.211,13.86-.294l26.371-.23q2.061-.067,4.238-.147c.729-.038,1.464-.032,2.206-.1s1.5-.141,2.263-.211C87.852,73.233,89.355,73.124,90.883,72.939Zm-1.324-9.167c.007-.064.013-.122.019-.186-.064-.518-.121-1.036-.166-1.56-.064.058-.134.115-.2.173-.1.07-.186.134-.275.2-.122.064-.243.128-.365.186a2.514,2.514,0,0,1-.473.127,2.049,2.049,0,0,1-.39.026,2.426,2.426,0,0,1-1.719-.543,2.65,2.65,0,0,1-.831-1.8,5.929,5.929,0,0,1-.02-.677,5.45,5.45,0,0,1-.639.409,4.763,4.763,0,0,1-3.017.684,2.262,2.262,0,0,1-1.407-.748,2.461,2.461,0,0,1-.543-1.208,3.79,3.79,0,0,1-.019-.7,6.315,6.315,0,0,1-1.081,1.036,2.77,2.77,0,0,1-.556.294l-.371.1a3,3,0,0,1-.415.013,1.46,1.46,0,0,1-.409-.077,1.356,1.356,0,0,1-.378-.14,2.6,2.6,0,0,1-.664-.467,1.946,1.946,0,0,1-.493-.819,1.685,1.685,0,0,1-.1-.441c-.006-.012,0-.019-.006-.032a3.628,3.628,0,0,1-1.6.608,2.758,2.758,0,0,1-1.508-.282,2.811,2.811,0,0,1-1-.843,2.953,2.953,0,0,1-.614-1.931,2.572,2.572,0,0,1,.122-.684,6.036,6.036,0,0,1-.87.428,2.935,2.935,0,0,1-2.595-.1,1.836,1.836,0,0,1-.71-.7A2.029,2.029,0,0,1,66,53.1c0-.076.013-.14.019-.211a4.127,4.127,0,0,1-1.125.2,3.375,3.375,0,0,1-1.227-.21,2.851,2.851,0,0,1-.979-.614,2.242,2.242,0,0,1-.7-1.809,1.718,1.718,0,0,1,.345-.889l-.114.019-.71.192a1.56,1.56,0,0,0-.313.122c-.116.063-.23.134-.352.2-.269.16-.55.352-.92.569-.084.051-.186.1-.3.16l-.16.076-.083.039-.128.051a3.71,3.71,0,0,1-.53.128l-.16.019-.077.026-.019.038h-.006l-.122-.045-.013-.038-.051-.007a2.953,2.953,0,0,1-.914-.236,1.856,1.856,0,0,1-.921-.914,1.915,1.915,0,0,1-.159-.678,2.456,2.456,0,0,1,.044-.594,3.858,3.858,0,0,1,.326-.953,7.384,7.384,0,0,1,1.03-1.56c.089-.108.185-.217.281-.326a26.435,26.435,0,0,0-10.165-5.6,50.051,50.051,0,0,1-2.218,6.476,30.74,30.74,0,0,1,6.457,3.018c1.054.594,2.052,1.2,3.049,1.7.492.275.991.505,1.483.722s1,.454,1.5.678q3,1.352,5.716,2.57c.9.416,1.79.78,2.646,1.144s1.694.755,2.519,1.049c3.235,1.3,6.329,2.154,9,3.017,1.336.429,2.6.806,3.759,1.215L84.95,63c1,.364,1.924.7,2.775,1.01.421.153.824.307,1.208.447.166.064.319.135.466.192.039-.2.071-.39.1-.575C89.521,63.97,89.54,63.867,89.559,63.772Zm-.2-3.894c.006,0,.006-.006.006-.013a24.174,24.174,0,0,0-2.11-1.6c-.044.243-.089.5-.134.741a6.307,6.307,0,0,0-.089,1.234.959.959,0,0,0,.179.588.684.684,0,0,0,.511.147c.051,0,.16.013.166.007s.026.006.058-.007a.774.774,0,0,1,.115-.044l.147-.09a5.546,5.546,0,0,0,.652-.518Q89.105,60.089,89.355,59.878Zm-5.792-1.362a5.207,5.207,0,0,0,1.5-1.348c-2.25-.934-4.506-1.765-6.757-2.647a5.262,5.262,0,0,0-.639.806,7.346,7.346,0,0,0-.562,1.054,3.211,3.211,0,0,0-.243.908.622.622,0,0,0,.063.4c.026.013.013.032.058.064a1.182,1.182,0,0,1,.115.083c.045.045.064.032.083.045s.051.038.064.025c.051.045.179.007.352-.07a10.357,10.357,0,0,0,1.093-.787,2.734,2.734,0,0,1,1.982-.722.86.86,0,0,1,.473.2c.083.076.108.147.089.211-.025.115-.166.179-.364.268v.358A4.22,4.22,0,0,0,81,58.549a.906.906,0,0,0,.262.409.7.7,0,0,0,.448.153A3.53,3.53,0,0,0,83.563,58.516ZM73.232,56.464c.8-.095,1.918-1.3,2.717-2.9-.985-.416-1.969-.844-2.947-1.317-2.308-1.106-3.4-2.3-4.878.134a1.863,1.863,0,0,0-.294.748c.013.154-.032.09.07.186.569.441,1.688-.071,2.468-.377a4.673,4.673,0,0,1,1.937-.442c.441.032.62.186.614.307,0,.147-.16.25-.467.429-.051.025-.109.064-.166.1a1.9,1.9,0,0,1-.294.467,1.673,1.673,0,0,0-.326,1.336,1.769,1.769,0,0,0,.485.959,1.214,1.214,0,0,0,.493.326A1.04,1.04,0,0,0,73.232,56.464Zm-5.613-6.782c-.314-.154-.633-.307-.946-.454-1.458-.672-4.942-3.222-6.585-2.372a1.006,1.006,0,0,1-.55.115c-.14.147-.281.294-.4.435a6.356,6.356,0,0,0-.806,1.163,1.755,1.755,0,0,0-.211.652c0,.007-.006.013.026.032a1.226,1.226,0,0,0,.351.1c.192.077.959-.358,1.586-.664.166-.084.338-.154.518-.224a2.715,2.715,0,0,1,.556-.141c.326-.038.632-.077.908-.1a8.543,8.543,0,0,1,2.23.256c.442.115.634.249.634.377s-.192.262-.64.371c-.083.019-.179.038-.275.057a2.282,2.282,0,0,1-.262.281,1.022,1.022,0,0,0-.409.915,1.252,1.252,0,0,0,1.464.831A5.33,5.33,0,0,0,67.619,49.682ZM51.975,51.913c-.3-.166-.6-.339-.9-.512a28.282,28.282,0,0,0-6.36-2.915A14.608,14.608,0,0,1,35,56.305c-6.878,1.758-16.378,1.221-20.348-5.575a6.7,6.7,0,0,0-5,4.162c4.666,1.988,8.809,5.932,11.775,10.484C32.19,65.331,48.274,64.1,51.975,51.913ZM21.3,73.6c.691.038,1.356.077,2,.109-2.1-6.751-7.589-14.128-14.193-16.973-.083.4-.153.806-.211,1.221a5.525,5.525,0,0,1,1.624.5c1.3.71,1.963,1.727,1.771,1.912-.224.237-1.151-.345-2.269-.959-.422-.211-.857-.409-1.221-.588-.1.991-.147,2.033-.186,3.094A48.544,48.544,0,0,1,6.836,71.36c1.214.306,2.378.626,3.516.863,1.387.236,2.7.518,3.976.69,1.279.154,2.5.294,3.657.435.569.045,1.125.083,1.662.121A1.915,1.915,0,0,1,19.366,73c-.23-.543-.2-1.093.07-1.227s.677.217.92.793a1.57,1.57,0,0,1,.122.971C20.753,73.559,21.034,73.578,21.3,73.6Z"></path><path d="M92.845,63.03c.294,0,.537.908.537,2.026s-.243,2.021-.537,2.021-.543-.9-.543-2.021S92.544,63.03,92.845,63.03Z"></path><path d="M55.754,45.341a2.736,2.736,0,0,1-2.73,3.362c-1.445.109-3.708-.294-4.456-1.738-1.023-1.976.588-3.913,2.576-4.252a.454.454,0,0,1,.09-.006.686.686,0,0,1,.166-.026C53.018,42.566,55.364,43.576,55.754,45.341Zm-2.947,1.464c.645-.045,1.642-.537.9-1.3a2.887,2.887,0,0,0-2.2-.9c-.729.2-2.052,1.042-.985,1.675A4.01,4.01,0,0,0,52.807,46.805Z"></path><path d="M18.3,67.952c.467,1.215.556,2.206.287,2.321s-.85-.793-1.278-1.9A5.735,5.735,0,0,1,17,67.639c-.057-.237-.217-.46-.275-.652-.153-.39-.185-.678-.057-.761s.37.045.684.326a2.165,2.165,0,0,1,.486.556A9.6,9.6,0,0,1,18.3,67.952Z"></path><path d="M14.955,62.608c.767,1,1.1,1.969.856,2.129s-.984-.524-1.7-1.458c-.69-.882-1.291-1.739-1.067-1.956C13.248,61.131,14.136,61.579,14.955,62.608Z"></path></g></svg>