<svg height='100px' width='100px'  fill="#000000" xmlns="http://www.w3.org/2000/svg" viewBox="0 0 128 128" x="0px" y="0px"><g><path d="M122.339,57.97a3.164,3.164,0,0,1,1.317,4.208.833.833,0,0,1-.268.316.906.906,0,0,1-.465.393c-3.218,1.221-6.555,1.561-9.922,2.163-3.456.614-6.829,1.633-10.267,2.366q-1.546.33-3.093.643c.149.084.292.173.429.269,1.984,1.382,2.884,4.773,2.765,7.061-.209,4.082-3.242,5.2-6.394,4.72a3.637,3.637,0,0,1-4.35-1.77c-5.954,1.424-12.008,2.735-17.985,3.915A.652.652,0,0,1,74,82.26c-.256,2.271-1.245,4.44-3.48,5.286a7.074,7.074,0,0,1-9.189-5.506c-.572-3.564.6-8.7,4.94-9.183a6.727,6.727,0,0,1,5.912,2.61.959.959,0,0,1,.2-.036A3.263,3.263,0,0,0,75,73.727a2.707,2.707,0,0,1,1.1-1.109c.167-.071.34-.131.507-.185a25.211,25.211,0,0,1-10.095-2.705,85.388,85.388,0,0,0-18.158-5.78c-.6,3.295-6.394,2.5-7.258-.459A80.862,80.862,0,0,1,32.952,64.9a84.388,84.388,0,0,1-8.516,1.275c-.286,2.867-2.038,5.358-5.471,5.387-6.936.054-7.264-14.29.078-13.753a.285.285,0,0,1,.071.012.9.9,0,0,1,.167.017,6.081,6.081,0,0,1,3.76,2.646,5.539,5.539,0,0,0,2.295-1.138,5.142,5.142,0,0,0,1.543-1.46c-.083-.03-.173-.059-.262-.083a65.65,65.65,0,0,0-10.482-2.682c-2.622-.375-5.334-.459-7.866-1.281-3.582-1.168-5.1-5.787-3.82-9.148,1.579-4.147,5.4-5.607,9.576-5.8a.793.793,0,0,1,.388.06,55.172,55.172,0,0,1,11.137.077C28.8,39.366,31.831,41,34.7,42.465c4.374,2.228,8.921,3.367,13.551,4.892,4.094,1.347,8.325,1.109,12.461,2.163,15.3,3.9,31.637,4.38,46.237,10.834a1.032,1.032,0,0,1,.238.161c.256.232,2.914-.638,3.337-.727q1.914-.393,3.832-.745c1.43-.262,2.86-.512,4.3-.715C119.485,58.209,121.612,57.547,122.339,57.97Zm-.232,3.3a1.245,1.245,0,0,0-.352-1.52c-8.777.924-17.478,3.254-26.053,5.3-7.008,1.675-14.475,4.934-21.8,4.32-3.242-.268-6.09-2.234-8.843-3.772-3.707-2.074-7.723-2.991-11.847-3.873-4.636-.989-9.332-1.818-13.885-3.165-4.189-1.245-8.236-2.9-12.4-4.231a57.949,57.949,0,0,0-13.522-2.783c-2.2-.166-5.351-.345-6.847-2.27A8.054,8.054,0,0,1,5.9,48.3a4.176,4.176,0,0,0,2.33,3.575c2.294,1.031,4.857,1.013,7.306,1.365a56.083,56.083,0,0,1,8.444,1.871c5.536,1.675,10.983,3.665,16.573,5.161,5.786,1.555,11.757,2.407,17.49,4.171,5.005,1.538,9.576,4.517,14.618,5.81,6.15,1.58,11.912-1.12,17.883-2.318,5.649-1.138,11.329-2.044,16.918-3.462,4.827-1.228,9.952-1.484,14.642-3.188ZM98.336,78.464a2.7,2.7,0,0,0,2.711-3.075c-.012-1.65-.381-3.921-1.573-5.178a3.584,3.584,0,0,0-3.45-.96,5.232,5.232,0,0,1,2.085,2.336C98.944,73.506,99.42,76.5,98.336,78.464ZM95.225,63.328c3.033-.7,6.067-1.442,9.112-2.157a52.9,52.9,0,0,0-9.755-3.1c-9.237-1.871-18.42-3.743-27.7-5.363-2.61-.459-5.143-1.21-7.735-1.723-2.121-.417-4.261-.375-6.388-.7a74.848,74.848,0,0,1-12.353-3.4c-4-1.364-7.515-3.784-11.49-5.166C25.139,40.409,20.962,40.462,17,40.582c-2.533.077-5.632.137-7.86,1.525-2.938,1.836-2.914,6.138.739,7.1,3.289.876,6.793.65,10.13,1.371,8.927,1.937,17.222,5.9,26.161,7.836,4.642,1.008,9.344,1.824,13.915,3.135,3.224.924,5.876,2.634,8.813,4.183C77.222,70.121,86.787,65.271,95.225,63.328Zm1.853,13a7.218,7.218,0,0,0-.762-4.309,3,3,0,0,0-2.688-1.609c-.983.114-1.287,1.019-1.353,1.9.34-.083.656-.173.948-.274a.758.758,0,0,1,.84.2,1.409,1.409,0,0,1,.179.107,2.894,2.894,0,0,1,1.2,2.157,21,21,0,0,1-.275,2.354c-.047.68-1.525.948-1.531.876.089,1.037,1.049.876,1.794.691A1.955,1.955,0,0,0,97.078,76.331ZM93.646,75.05a1.325,1.325,0,0,0-.352-1.163c-3.033.906-7.008.668-8.211-2.735q-1.216.287-2.432.59a.616.616,0,0,1-.1.024c-.352,4.285-4.91,6.1-8.593,7.062-.03.006-.054.006-.084.012a11.262,11.262,0,0,1,.185,1.6c6.466-1.282,13.015-2.706,19.415-4.285C93.539,75.788,93.61,75.419,93.646,75.05Zm-3.17-2.479a4.782,4.782,0,0,1,.923-2.813c-1.519.316-3.039.649-4.558.989C87.419,72.237,88.932,72.642,90.476,72.571ZM80.047,73.655c-.554.089-1.108.131-1.68.191a2.612,2.612,0,0,0-2.259,1.478,3.953,3.953,0,0,1-1.829,1.43,1.174,1.174,0,0,1,.047.119C76.406,76.283,78.843,75.383,80.047,73.655ZM70.912,85.174a6.928,6.928,0,0,0,1.2-6.078c-.584-2.092-2.491-4.487-4.88-4.523A5.676,5.676,0,0,1,69.1,77.38a6.292,6.292,0,0,1,.155,2.973,5.066,5.066,0,0,1-.507,1.49c-.16.286-.262.387-.321.364s-.06-.173-.006-.477a13.429,13.429,0,0,0,.2-1.454,6.566,6.566,0,0,0-.31-2.646,5.124,5.124,0,0,0-2.365-2.843c-2.765.942-3.606,4.827-2.742,7.408a6.844,6.844,0,0,0,3.028,3.5,4.173,4.173,0,0,0,1.5-1.681c.286-.548.412-.786.549-.757.059.006.1.084.119.239a1.938,1.938,0,0,1-.078.745,3.513,3.513,0,0,1-.613,1.287,3.95,3.95,0,0,1-.561.584A3.327,3.327,0,0,0,70.912,85.174ZM46.6,63.709a1.257,1.257,0,0,1,.03-.143.076.076,0,0,0-.036-.006c-1.09-.238-2.175-.5-3.26-.769a.941.941,0,0,1-.268.144l-.232.071a2,2,0,0,0,1.728,1.2C44.989,64.287,46.533,64.412,46.6,63.709Zm-6.585-1.8c-.631-.173-1.263-.352-1.889-.537v.042a3.413,3.413,0,0,1-.28.941C38.577,62.225,39.3,62.076,40.019,61.91Zm-3.6-1.037c-.28-.084-.56-.173-.84-.257-.34,1.621-2.187,1.407-3.552,1.168a2.729,2.729,0,0,1-1.847-.947,1.825,1.825,0,0,1-.316-.727,2.024,2.024,0,0,1-.441.977c-1.031,1.246,1.043.948,1.817.936,1.448-.024,4.881.977,5.167-1.085C36.408,60.914,36.42,60.9,36.42,60.873Zm-2.563-.68c.006-.035.012-.071.018-.1-.762-.238-1.519-.477-2.282-.715-.024.459.155.554.727.655a10.744,10.744,0,0,0,1.073.155A2.986,2.986,0,0,0,33.857,60.193Zm-4.552,3.576A2.249,2.249,0,0,1,27.4,62.756a2.015,2.015,0,0,1-.09-1.782,6.157,6.157,0,0,0,.7-1.627,8.514,8.514,0,0,1-1.775,1.538A8.752,8.752,0,0,1,23.882,62.1a9.09,9.09,0,0,1,.542,2.283A34.206,34.206,0,0,0,29.305,63.769Zm-8.456,5.524c3.378-2.527,2.073-8.73-1.943-9.7a3.709,3.709,0,0,0-.942.06,3.928,3.928,0,0,1,.966.727A5.017,5.017,0,0,1,20,62.07a7.245,7.245,0,0,1,.477,2.7c-.036,1.371-.346,1.847-.435,1.823-.149-.029-.071-.53-.2-1.793a8.391,8.391,0,0,0-.607-2.414A3.6,3.6,0,0,0,16.8,60.181a3.929,3.929,0,0,0-1.341,2.688,1.267,1.267,0,0,1,.829.322,2.066,2.066,0,0,1,.554,1.537,1.7,1.7,0,0,1-.709,1.567,1.757,1.757,0,0,1-.3.1,6.019,6.019,0,0,0,1.889,2.985,4.293,4.293,0,0,0,1.537-1.74c.131-.256.2-.453.274-.578s.138-.179.2-.173.113.066.143.215a1.6,1.6,0,0,1-.018.733,3.223,3.223,0,0,1-.572,1.257,3.862,3.862,0,0,1-.685.733A2.514,2.514,0,0,0,20.849,69.293Z"></path><path d="M89.141,62.321a.894.894,0,0,1,0,1.787,1.084,1.084,0,0,0-.364.042.893.893,0,0,1-.471-1.722A3.022,3.022,0,0,1,89.141,62.321Z"></path><path d="M82.848,64.615a.9.9,0,0,1-.626,1.1,10.6,10.6,0,0,1-1.579.179.894.894,0,1,1,0-1.788,6.627,6.627,0,0,0,1.108-.119A.914.914,0,0,1,82.848,64.615Z"></path><path d="M82.627,61.188a.92.92,0,0,1-.625,1.1,7.287,7.287,0,0,1-1.121.3.908.908,0,0,1-1.1-.626.894.894,0,0,1,.626-1.1,6.219,6.219,0,0,0,1.114-.3A.9.9,0,0,1,82.627,61.188Z"></path><path d="M74.91,61.725a.894.894,0,0,1,0,1.788H73.122c-.595,0-.595-1.788,0-1.788Z"></path><path d="M65.65,79.579c.476.786.214,2.288-.811,2.52-1.394.31-1.674-2.377-.625-2.854A1.012,1.012,0,0,1,65.65,79.579Z"></path><path d="M39.155,50.4a.894.894,0,1,1,0,1.788H37.963a.894.894,0,0,1,0-1.788Z"></path><path d="M33.792,48.615a.894.894,0,1,1,0,1.787H32.6a.894.894,0,1,1,0-1.787Z"></path><path d="M32.6,51.594a.894.894,0,0,1,0,1.788H32a.894.894,0,0,1,0-1.788Z"></path><path d="M28.8,50.629a.9.9,0,0,1-.894.894,10.865,10.865,0,0,1-1.5-.185.894.894,0,0,1-.625-1.1.914.914,0,0,1,1.1-.625,6.856,6.856,0,0,0,1.025.119A.9.9,0,0,1,28.8,50.629Z"></path></g></svg>