<svg height='100px' width='100px'  fill="#000000" xmlns="http://www.w3.org/2000/svg" xmlns:xlink="http://www.w3.org/1999/xlink" version="1.1" x="0px" y="0px" viewBox="0 0 140 140" style="enable-background:new 0 0 140 140;" xml:space="preserve"><path d="M28.6582031,57.3720703c0,6.2275391,3.2578125,11.9648438,8.4150391,15.0224609  c-2.690918,2.5214844-4.2602539,6.1328125-4.2602539,9.9365234c0,7.4003906,5.8286133,13.4208984,12.9926758,13.4208984  c0.0986328,0,0.1967773-0.0009766,0.2949219-0.0029297c-0.8520508,1.6318359-1.2949219,3.4550781-1.2949219,5.3691406  c0,6.2871094,4.9541016,11.4023438,11.043457,11.4023438c6.0976562,0,11.0581055-5.1152344,11.0581055-11.4023438  l0.1455078-59.8388672c0-0.0205078-0.0004883-0.0419922-0.0019531-0.0634766  c-0.0288086-7.5791016-5.8847656-13.7363281-13.0786133-13.7363281c-7.019043,0-12.7626953,5.8730469-13.0522461,13.2089844  C33.7695312,42.7470703,28.6582031,49.6357422,28.6582031,57.3720703z M41.0020142,42.7595215  c0.2264404,1.9169922,1.0145874,5.5554199,3.777771,8.1574707c2.0390625,1.9199219,4.7368164,2.8896484,8.0307617,2.8896484  c0.0278931,0,0.057312-0.0024414,0.0852661-0.0025635c0.4526978,2.949585,2.9313965,5.2144775,5.9205933,5.2144775  c0.5522461,0,1-0.4472656,1-1s-0.4477539-1-1-1c-2.206543,0-4.0014648-1.875-4.0014648-4.1806641  c0-2.2949219,1.7949219-4.1621094,4.0014648-4.1621094c0.5522461,0,1-0.4472656,1-1s-0.4477539-1-1-1  c-2.9630127,0-5.4251099,2.21875-5.9090576,5.121582c-2.8034058,0.0141602-5.0756836-0.7600098-6.7462158-2.3266602  c-3.1987305-3.0019531-3.2529297-7.9589844-3.2529297-8.0087891v-0.1904297c0-6.5019531,4.9633789-11.7919922,11.0639648-11.7919922  c6.1088867,0,11.0786133,5.2900391,11.0786133,11.7919922c0,0.0195312,0.0004883,0.0380859,0.0019531,0.0576172  l-0.0581055,23.8769531c-0.0227661,0.0576172-0.0577393,0.1079102-0.0698242,0.1708984  c-0.0541992,0.2832031-1.4150391,6.9121094-8.8442383,5.84375c-0.5419922-0.0800781-1.0537109,0.3007812-1.1313477,0.8486328  c-0.0786133,0.546875,0.3012695,1.0527344,0.8481445,1.1318359c0.6669922,0.0957031,1.2944336,0.1396484,1.8862305,0.1396484  c3.6865234,0,5.9400024-1.7253418,7.2998047-3.5306396l-0.0394897,16.2313232  c-0.2444458,0.6088867-1.3985596,3.0606689-4.0720215,3.2679443c-0.4960938-2.3280029-2.5164795-4.0789795-4.9329224-4.0789795  c-0.5522461,0-1,0.4472656-1,1s0.4477539,1,1,1c1.6845703,0,3.0546875,1.4287109,3.0546875,3.1845703  c0,1.7636719-1.3701172,3.1992188-3.0546875,3.1992188c-0.5522461,0-1,0.4472656-1,1s0.4477539,1,1,1  c2.4886475,0,4.5508423-1.8632812,4.9665527-4.3027344c1.7095947-0.0985107,3.0472412-0.8397217,4.0299072-1.7724609  l-0.0281982,11.5771484c0,0,0,0.0009766,0,0.0019531c0,5.1845703-4.0634766,9.4023438-9.0581055,9.4023438  c-4.9868164,0-9.043457-4.2177734-9.043457-9.4023438c0-2.2138672,0.7124023-4.2763672,2.0595703-5.9648438  c0.262207-0.3291016,0.2910156-0.7871094,0.0712891-1.1455078c-0.184082-0.3007812-0.5092773-0.4785156-0.8530273-0.4785156  c-0.065918,0-0.1328125,0.0068359-0.1992188,0.0205078c-0.6616211,0.1337891-1.3608398,0.2021484-2.0786133,0.2021484  c-6.0615234,0-10.9926758-5.1230469-10.9926758-11.4208984c0-3.4960938,1.5609131-6.782959,4.1796265-8.9346924  c1.010498,0.4798584,3.1401367,1.3797607,5.4329224,1.6931152c0.4282837,2.9786377,2.9202881,5.2738037,5.9299316,5.2738037  c0.5522461,0,1-0.4472656,1-1s-0.4477539-1-1-1c-2.206543,0-4.0019531-1.875-4.0019531-4.1806641  c0-2.2949219,1.7954102-4.1621094,4.0019531-4.1621094c0.5522461,0,1-0.4472656,1-1s-0.4477539-1-1-1  c-2.9401245,0-5.3883057,2.1834717-5.899292,5.0524902c-2.6459351-0.4188232-5.0961914-1.7270508-5.1236572-1.7419434  c-0.0065308-0.003418-0.013916-0.0029297-0.0205078-0.0062256c-0.0101318-0.005249-0.0180054-0.0133057-0.0283203-0.0181885  c-5.2397461-2.4775391-8.6254883-7.9472656-8.6254883-13.9345703C30.6582031,50.6928711,34.944397,44.7348633,41.0020142,42.7595215  z"></path><path d="M72.9492188,41.2128906c-0.0014648,0.0224609-0.0019531,0.0449219-0.0019531,0.0664062l0.1455078,59.8388672  c0,6.2871094,4.9604492,11.4023438,11.0581055,11.4023438c6.0893555,0,11.043457-5.1152344,11.043457-11.4023438  c0-1.9140625-0.4428711-3.7373047-1.2949219-5.3691406c0.0981445,0.0019531,0.1962891,0.0029297,0.2949219,0.0029297  c7.1640625,0,12.9926758-6.0205078,12.9926758-13.4208984c0-3.8037109-1.5693359-7.4150391-4.2602539-9.9365234  c5.1572266-3.0576172,8.4150391-8.7949219,8.4150391-15.0224609c0-7.7363281-5.1113281-14.625-12.2617188-16.6835938  c-0.2895508-7.3359375-6.0332031-13.2089844-13.0522461-13.2089844  C78.8349609,27.4794922,72.9794922,33.6347656,72.9492188,41.2128906z M97.0917969,41.2714844v0.1904297  c0,0.0498047-0.0541992,5.0068359-3.2529297,8.0087891c-1.7531738,1.6445312-4.1693726,2.4135742-7.1694946,2.3168945  c-0.3547974-0.505127-0.6760864-1.0371094-0.9755249-1.565918c-0.940918-1.6621094-2.0078125-3.5458984-4.5102539-3.5458984  c-0.5522461,0-1,0.4472656-1,1s0.4477539,1,1,1c1.2773438,0,1.828125,0.8681641,2.7700195,2.53125  c0.4023438,0.7109375,0.8583984,1.5166016,1.4511719,2.2558594c5.1279297,6.3974609,5.7387695,8.4960938,5.7851562,9.0644531  c-0.5717773-0.0253906-2.8393555-0.5048828-9.4160156-5.3154297c-0.4453125-0.328125-1.0717773-0.2294922-1.3974609,0.2158203  C80.050293,57.8740234,80.1474609,58.5,80.5932617,58.8251953c6.3691406,4.6591797,9.2792969,5.7382812,10.715332,5.7382812  c0.8217773,0,1.1601562-0.3535156,1.3876953-0.5917969c0.977417-1.0217285,1.0630493-2.9979248-4.5055542-10.2026367  c2.8407593-0.1801758,5.2018433-1.1312256,7.02948-2.8520508c2.7631836-2.6020508,3.5513306-6.2404785,3.777771-8.1574707  c6.0576172,1.9753418,10.343811,7.9333496,10.343811,14.6125488c0,5.9873047-3.3857422,11.4570312-8.6254883,13.9345703  c-0.0102539,0.0048828-0.0181274,0.0129395-0.0281982,0.0180664c-0.0066528,0.003418-0.0140381,0.0028076-0.0206299,0.0063477  c-0.0274658,0.0148926-2.4777222,1.3232422-5.1236572,1.7419434c-0.5109863-2.8690186-2.9591675-5.0524902-5.899292-5.0524902  c-0.5522461,0-1,0.4472656-1,1s0.4477539,1,1,1c2.206543,0,4.0019531,1.8671875,4.0019531,4.1621094  c0,2.3056641-1.7954102,4.1806641-4.0019531,4.1806641c-0.5522461,0-1,0.4472656-1,1s0.4477539,1,1,1  c3.0096436,0,5.5016479-2.295166,5.9299316-5.2738037c2.2927856-0.3133545,4.4224243-1.2131348,5.4329834-1.6931152  c2.6187134,2.1517334,4.1795654,5.4385986,4.1795654,8.9346924c0,6.2978516-4.9311523,11.4208984-10.9926758,11.4208984  c-0.7177734,0-1.4169922-0.0683594-2.0786133-0.2021484c-0.4116211-0.0839844-0.8325195,0.0996094-1.0522461,0.4580078  s-0.190918,0.8164062,0.0712891,1.1455078c1.347168,1.6884766,2.0595703,3.7509766,2.0595703,5.9648438  c0,5.1845703-4.0566406,9.4023438-9.043457,9.4023438c-4.9946289,0-9.0581055-4.2177734-9.0581055-9.4023438  c0-0.0009766,0-0.0019531,0-0.0019531l-0.0281982-11.5771484c0.9827271,0.9327393,2.3203125,1.6739502,4.0299072,1.7724609  c0.4157104,2.4394531,2.4779053,4.3027344,4.9665527,4.3027344c0.5522461,0,1-0.4472656,1-1s-0.4477539-1-1-1  c-1.6845703,0-3.0546875-1.4355469-3.0546875-3.1992188c0-1.7558594,1.3701172-3.1845703,3.0546875-3.1845703  c0.5522461,0,1-0.4472656,1-1s-0.4477539-1-1-1c-2.4171143,0-4.4380493,1.751709-4.9334717,4.0808105  c-2.6746216-0.2021484-3.8275146-2.6616211-4.0714722-3.2702637l-0.0394897-16.2303467  c1.3597412,1.8050537,3.6130981,3.5301514,7.2998047,3.5301514c0.5913086,0,1.2197266-0.0449219,1.8862305-0.1396484  c0.546875-0.0791016,0.9267578-0.5849609,0.8481445-1.1318359c-0.078125-0.546875-0.5859375-0.9238281-1.1313477-0.8486328  c-7.4257812,1.0625-8.7890625-5.5585938-8.8442383-5.8427734c-0.0120239-0.0638428-0.046936-0.114502-0.0698242-0.1726074  l-0.0581055-23.873291c0.0014648-0.0205078,0.0019531-0.0400391,0.0019531-0.0605469  c0-6.5019531,4.9697266-11.7919922,11.0786133-11.7919922C92.128418,29.4794922,97.0917969,34.7695312,97.0917969,41.2714844z"></path><path d="M70.0449219,20.0449219c0.5522461,0,1-0.4472656,1-1V6.0546875c0-0.5527344-0.4477539-1-1-1s-1,0.4472656-1,1v12.9902344  C69.0449219,19.5976562,69.4926758,20.0449219,70.0449219,20.0449219z"></path><path d="M69.0449219,133.9453125c0,0.5527344,0.4477539,1,1,1s1-0.4472656,1-1v-12.9902344c0-0.5527344-0.4477539-1-1-1  s-1,0.4472656-1,1V133.9453125z"></path><path d="M44.5595703,26.8173828c0.1699219,0,0.3417969-0.0429688,0.4995117-0.1337891  c0.4780273-0.2763672,0.6416016-0.8886719,0.3652344-1.3662109l-6.5014648-11.2509766  c-0.2763672-0.4794922-0.8876953-0.6425781-1.3662109-0.3662109c-0.4780273,0.2763672-0.6416016,0.8886719-0.3652344,1.3662109  l6.5014648,11.2509766C43.8779297,26.6386719,44.2138672,26.8173828,44.5595703,26.8173828z"></path><path d="M95.0556641,113.2070312c-0.4780273,0.2763672-0.6416016,0.8886719-0.3652344,1.3662109l6.5009766,11.2509766  c0.1850586,0.3212891,0.5209961,0.5,0.8666992,0.5c0.1699219,0,0.3417969-0.0429688,0.4995117-0.1337891  c0.4780273-0.2763672,0.6416016-0.8886719,0.3652344-1.3662109l-6.5009766-11.2509766  C96.1455078,113.09375,95.5332031,112.9306641,95.0556641,113.2070312z"></path><path d="M26.375,43.5478516l-11.2602539-6.4951172c-0.4794922-0.2773438-1.090332-0.1113281-1.3657227,0.3662109  c-0.2758789,0.4785156-0.1118164,1.0898438,0.3666992,1.3662109l11.2602539,6.4951172  c0.1572266,0.0908203,0.3291016,0.1337891,0.4985352,0.1337891c0.3457031,0,0.6821289-0.1796875,0.8671875-0.5  C27.0175781,44.4355469,26.8535156,43.8242188,26.375,43.5478516z"></path><path d="M113.340332,94.8691406c-0.2758789,0.4785156-0.1118164,1.0898438,0.3666992,1.3662109l11.2602539,6.4951172  c0.1572266,0.0908203,0.3291016,0.1337891,0.4985352,0.1337891c0.3457031,0,0.6821289-0.1796875,0.8671875-0.5  c0.2758789-0.4785156,0.1118164-1.0898438-0.3666992-1.3662109l-11.2602539-6.4951172  C114.2275391,94.2255859,113.6162109,94.3916016,113.340332,94.8691406z"></path><path d="M5,69.8535156c0,0.5527344,0.4477539,1,1,1h13.0019531c0.5522461,0,1-0.4472656,1-1s-0.4477539-1-1-1H6  C5.4477539,68.8535156,5,69.3007812,5,69.8535156z"></path><path d="M134,68.8535156h-13.0019531c-0.5522461,0-1,0.4472656-1,1s0.4477539,1,1,1H134c0.5522461,0,1-0.4472656,1-1  S134.5522461,68.8535156,134,68.8535156z"></path><path d="M25.2802734,94.4521484l-11.2602539,6.4951172c-0.4785156,0.2763672-0.6425781,0.8876953-0.3666992,1.3662109  c0.1850586,0.3203125,0.5214844,0.5,0.8671875,0.5c0.1694336,0,0.3413086-0.0429688,0.4985352-0.1337891l11.2602539-6.4951172  c0.4785156-0.2763672,0.6425781-0.8876953,0.3666992-1.3662109S25.7573242,94.1748047,25.2802734,94.4521484z"></path><path d="M126.2373047,37.3681641c-0.2763672-0.4775391-0.8891602-0.6435547-1.3657227-0.3662109l-11.2602539,6.4951172  c-0.4785156,0.2763672-0.6425781,0.8876953-0.3666992,1.3662109c0.1850586,0.3203125,0.5214844,0.5,0.8671875,0.5  c0.1694336,0,0.3413086-0.0429688,0.4985352-0.1337891l11.2602539-6.4951172  C126.3491211,38.4580078,126.5131836,37.8466797,126.2373047,37.3681641z"></path><path d="M43.5268555,113.4853516l-6.5009766,11.25c-0.2763672,0.4775391-0.112793,1.0898438,0.3652344,1.3662109  c0.1577148,0.0908203,0.3295898,0.1337891,0.4995117,0.1337891c0.3457031,0,0.6816406-0.1787109,0.8666992-0.5l6.5009766-11.25  c0.2763672-0.4775391,0.112793-1.0898438-0.3652344-1.3662109  C44.4135742,112.8427734,43.8022461,113.0058594,43.5268555,113.4853516z"></path><path d="M95.3896484,26.7294922c0.3457031,0,0.6816406-0.1787109,0.8666992-0.5l6.5009766-11.2509766  c0.2763672-0.4775391,0.112793-1.0898438-0.3652344-1.3662109c-0.4785156-0.2763672-1.090332-0.1132812-1.3662109,0.3662109  l-6.5009766,11.2509766c-0.2763672,0.4775391-0.112793,1.0898438,0.3652344,1.3662109  C95.0478516,26.6865234,95.2197266,26.7294922,95.3896484,26.7294922z"></path></svg>