<svg height='100px' width='100px'  fill="#000000" xmlns="http://www.w3.org/2000/svg" viewBox="0 0 128 128" x="0px" y="0px"><g><path d="M123.772,47.8c1.1,4.947-1.963,8.323-5.556,11.294a1.037,1.037,0,0,1-.507.23c-9.21,7.451-23.414,6.734-34.573,6.666-.108.433-.217.859-.352,1.285a.992.992,0,0,1-1.008.7,1.022,1.022,0,0,1-.65.21h-.71c-.819,1.793-1.476,3.965-3.052,5.2a2.85,2.85,0,0,1-1.178.528c.968,1.394,3.066,2.172,5.143,2.571,2-6.368,13.189-5.38,14.319,1.272.731,4.27-.907,9.434-5.569,10.55-4,.954-8.323.345-9.258-4.209-.013-.061-.013-.128-.02-.189-.487-.048-.934-.095-1.312-.095-7.343-.034-14.685.487-22.02-.054a7.942,7.942,0,0,1-3.925,4.588.985.985,0,0,1-.4.182,1.079,1.079,0,0,1-.311.068c-5.17,1.124-9.88,0-11.483-5.583-.075-.243-.136-.5-.2-.758a4.6,4.6,0,0,1-4.608-2.977,1.133,1.133,0,0,1-.183-.535c-1.942-.047-3.877.007-5.819.007H30.5a2.5,2.5,0,0,1-4.135-.007,77.862,77.862,0,0,0-8.424-.243.634.634,0,0,1-.115-.014,6.912,6.912,0,0,1-1.347,2.389,1.677,1.677,0,0,1-.183.2,1.411,1.411,0,0,1-.21.162C10.62,85.5,3.84,76.326,7.393,71.332c2.2-3.093,7.376-3.641,9.778-.406a5.7,5.7,0,0,1,.893,1.922,10.651,10.651,0,0,0,6.219-1.333A9.288,9.288,0,0,1,22.93,68.5v.366a1.015,1.015,0,0,1-2.03,0V67.515a1.1,1.1,0,0,1,.067-.379c-1.563-.013-3.119-.067-4.669-.175-2.869-.21-15.551-2.572-11.511-7.607a.885.885,0,0,1,.5-.331.866.866,0,0,1,.623-.44c3.376-.69,6.483.507,9.852-.778a33.559,33.559,0,0,1,9.555-2.132A107.509,107.509,0,0,1,36.382,55.3c3.533.1,7.045.724,10.564.792,7.085.142,13.459-3.654,19.814-6.328A148.311,148.311,0,0,1,87.487,42.4c8.452-2.152,19.787-4.859,28.361-1.956C119.258,41.6,122.919,44.02,123.772,47.8Zm-1.814,1.441a8.183,8.183,0,0,0-4.283-5.833c-3.682-1.922-8-2.138-12.073-1.894a101.791,101.791,0,0,0-30.363,7c-6.057,2.328-11.917,5.1-17.94,7.491-5.23,2.085-9.528,2.132-15.07,1.658a86.772,86.772,0,0,0-18.122.156c-3.478.44-6.449,1.915-9.8,2.6-2,.406-3.931-.028-5.88-.048,2.28,1.469,6.577.514,8.81.115a75.009,75.009,0,0,1,9.576-1.306c9.3-.433,18.366,1.658,27.63-.243,16.01-3.282,29.592-13.7,46.232-14.888,5.522-.392,11.9-.426,17.121,1.8A9.032,9.032,0,0,1,121.958,49.244ZM107.409,62.135c3.174-1.116,17.642-7.551,12.458-12.606-3.715-3.621-10.935-3.756-15.774-3.614A65.037,65.037,0,0,0,82.161,50.7C75,53.514,68.14,57.318,60.737,59.476a58.679,58.679,0,0,1-22.582,2.118c-7.538-.785-14.467.075-21.9,1.1-3.309.459-7.721,1.089-10.13-1.719-.386,1.387,6.4,3.356,7.309,3.545,4.439.935,9.311.379,13.8.231,10.056-.339,20.146-.109,30.2-.109a.916.916,0,0,1,.237.027c.041-.216.082-.426.136-.636.013-.034.027-.061.034-.087a1.083,1.083,0,0,1,.947-.907A68.938,68.938,0,0,1,70.9,62.893c3.729.2,7.538.014,11.24.481a1.01,1.01,0,0,1,.548.23,1.08,1.08,0,0,1,.636.365C91.29,64.044,99.776,64.829,107.409,62.135Zm-16.356,23.6c2.653-1.7,4.088-7.112,1.685-9.616a6.784,6.784,0,0,0-4.364-1.868,2.753,2.753,0,0,1,.182.224c.109.162.2.324.3.467a5.675,5.675,0,0,1,.562,1.509c.155.785.04,1.109-.088,1.13-.149.027-.284-.244-.6-.907a11.882,11.882,0,0,0-.676-1.245,3.275,3.275,0,0,0-1.178-1.11,4.351,4.351,0,0,0-3.471,2.47c.7.068,1.339.1,1.861.115a1.42,1.42,0,0,1,1.19,1.178c.007,2,.082,3.877-1.461,5.3a3.144,3.144,0,0,1-2.091.656,3.374,3.374,0,0,0,3.634,2.619c.237.007.48.007.724,0a7.113,7.113,0,0,0,2.07-2.652,8.443,8.443,0,0,0,.772-2.856,11.562,11.562,0,0,0,.007-1.611c-.027-.331,0-.5.067-.521s.169.1.318.433a4.934,4.934,0,0,1,.325,1.719,7.721,7.721,0,0,1-.629,3.215,8.059,8.059,0,0,1-1.2,2c-.041.047-.088.094-.135.142A5.736,5.736,0,0,0,91.053,85.739Zm-6.821-4.615a12.484,12.484,0,0,0,.19-2.22c-3.574-.182-8.764-1.238-10.354-4.622H72.329a.722.722,0,0,1-.122-.013c-4.087,3.1-8.885,3.613-13.94,3.647.034.44.047.893.041,1.354a37.367,37.367,0,0,0,7.1-.582,22.392,22.392,0,0,0,4.433-1.374c1.109-.433,1.833-.832,2.321-1.042s.724-.271.764-.21-.108.23-.541.548a12.207,12.207,0,0,1-2.206,1.361A19.344,19.344,0,0,1,65.6,79.608a34.7,34.7,0,0,1-7.342.683c-.048.494-.116.988-.21,1.482,4.967.332,9.934.2,14.921.089,2.592-.055,5.231-.2,7.823-.055C81.525,81.855,84.009,82.328,84.232,81.124ZM80.991,66.162c.081-.284.155-.568.223-.859-3.4-.332-6.9-.2-10.313-.379a73.757,73.757,0,0,0-11.213.047,10.132,10.132,0,0,0-.156,1.191c4.345-.386,8.7-.034,13.054,0a.868.868,0,0,1,.23.027,1.015,1.015,0,0,1,1,1.259c-.346,1.367-.562,2.768-.968,4.121,1.374.352,3.032.846,3.83-.406a39.513,39.513,0,0,0,2.132-4.331.953.953,0,0,1,.961-.67ZM70.813,71.291a30.93,30.93,0,0,0,.758-3.112c-3.045-.055-6.09-.224-9.136-.149a7.743,7.743,0,0,0,.6,2.382c1.164-.244,2.348-.345,3.526-.494a1.025,1.025,0,0,1,1.671-.413A10.1,10.1,0,0,0,70.813,71.291Zm-.6,1.936a14.026,14.026,0,0,1-2.443-1.449c-1.238.19-2.5.278-3.729.5a21.79,21.79,0,0,0,.176,3.2A15.29,15.29,0,0,0,70.211,73.227Zm-7.985,2.5a32.152,32.152,0,0,1-.217-3.276c-.047-.034-.088-.067-.135-.108a1.011,1.011,0,0,1-.508-.589,12.537,12.537,0,0,1-.954-3.64c-.595.04-1.191.088-1.786.155a.8.8,0,0,1-.927-.588.9.9,0,0,1-.258-.677c.007-.054.007-.115.014-.169H36.071c-.169,0-.338.006-.507.006a8.739,8.739,0,0,1,.142,1.942,1.026,1.026,0,0,1-2,.285A11.214,11.214,0,0,0,32.9,70.96a.931.931,0,0,1,.223.433c.379,1.522,2.382,1.61,3.722,1.617a.93.93,0,0,1,.7-1.143c2.037-.521,5.015-2,6.754-.305a7.258,7.258,0,0,1,1.346-.622,17.365,17.365,0,0,1,8.425-.6c1.9.379,3.343,3.674,3.858,5.556.034,0,.067-.007.108-.007C59.438,75.886,60.845,75.852,62.226,75.731ZM52.6,86.585c3.478-1.34,4.439-7.6,3.187-10.6-1.157-2.781-2.734-3.831-5.752-3.695-.352.02-.717.027-1.082.047a.115.115,0,0,1,.027.027,5.074,5.074,0,0,1,.839,1.259,8.649,8.649,0,0,1,.656,1.942c.2,1,.156,1.381.027,1.421s-.352-.3-.717-1.2A15.471,15.471,0,0,0,49,74.059,3.786,3.786,0,0,0,47.5,72.5a5.131,5.131,0,0,0-1.78.622c-3.769,2.281-3.742,7.39-1.78,10.95A5.493,5.493,0,0,0,48.78,87a5.855,5.855,0,0,0,.649-1.212,11.235,11.235,0,0,0,.589-2.043,24.188,24.188,0,0,0,.406-3.059c.108-1.55.095-2.152.25-2.172.122-.02.393.568.467,2.186a16.18,16.18,0,0,1-.2,3.214,11.7,11.7,0,0,1-.582,2.233,8.434,8.434,0,0,1-.385.853A16.936,16.936,0,0,0,52.6,86.585Zm-9.92-13.71c-.792-.413-2.342.135-3.492.562a6.906,6.906,0,0,1-.65,5.393,2.51,2.51,0,0,0,2.274,1.441C40.531,77.578,40.977,74.8,42.683,72.875ZM37.35,75.649c0-.216,0-.433-.013-.643a.869.869,0,0,1-.278.034A7.932,7.932,0,0,1,32.5,73.917a14.089,14.089,0,0,1-.832,2.808c1.712-.013,3.424-.047,5.136.007a1.039,1.039,0,0,1,.453.122A6.855,6.855,0,0,0,37.35,75.649Zm-6.449-5.1a16.963,16.963,0,0,1,1.7-3.661c-2.653.068-5.319.169-7.979.223A7.807,7.807,0,0,0,26.083,70.5a1.23,1.23,0,0,1,.23-.021A45.225,45.225,0,0,1,30.9,70.547Zm-1.1,5.238a15.481,15.481,0,0,0,.832-3.249,27.988,27.988,0,0,0-3.187-.054c.034,1.543-.284,3.147.129,4.629a1.227,1.227,0,0,1,.2.21c.338.46.588.839,1.022.345A6.013,6.013,0,0,0,29.805,75.785Zm-4.392.866a26.267,26.267,0,0,1,.014-3.492,12.31,12.31,0,0,1-7.065,1.726,11.756,11.756,0,0,1-.074,1.6C20.663,76.475,23.038,76.462,25.413,76.651Zm-10.563,3c1.441-1.414,2.138-5.589.859-7.315a4.273,4.273,0,0,0-3.228-1.55,2.622,2.622,0,0,1,.176.414c.081.29.176.568.237.825.041.271.074.521.115.758a8.33,8.33,0,0,1-.061,2.253c-.054.278-.1.508-.155.7a3.8,3.8,0,0,1-.176.454c-.109.223-.19.3-.264.291s-.108-.136-.122-.372c-.007-.122-.007-.278,0-.461s-.007-.412,0-.676a13.369,13.369,0,0,0-.149-2.058,6.415,6.415,0,0,0-.683-2.05,3.211,3.211,0,0,0-2.606,2.172,4.411,4.411,0,0,0-.155,1.5.976.976,0,0,1,.162-.121,1.018,1.018,0,0,1,1.387.365,2.342,2.342,0,0,1-.169,2.463,1.29,1.29,0,0,1-.521.42,6.418,6.418,0,0,0,1.462,1.962,10.881,10.881,0,0,0,.832-1.725c.183-.44.345-.6.481-.575s.23.223.223.73a4.423,4.423,0,0,1-.7,2.139A2.68,2.68,0,0,0,14.85,79.655Z"></path><path d="M46.323,80.7a.959.959,0,0,1-.264.947c-.128.873-1.394,1.4-1.847.426a5.982,5.982,0,0,1-.081-5.258,1.025,1.025,0,0,1,1.854.244C46.4,78.248,46.039,79.493,46.323,80.7Z"></path></g></svg>