<svg height='100px' width='100px'  fill="#000000" xmlns="http://www.w3.org/2000/svg" xmlns:xlink="http://www.w3.org/1999/xlink" version="1.1" x="0px" y="0px" viewBox="0 0 500 500" enable-background="new 0 0 500 500" xml:space="preserve"><path d="M338.288,337c-7.951,0-14.677,5.312-16.837,12.571h-2.143c1.833-8.243,9.191-14.43,17.979-14.43c2.762,0,5-2.238,5-5  s-2.238-5-5-5c-14.318,0-26.191,10.642-28.142,24.43H203.276c-2.057-15.581-13.59-28.522-29.098-32.157l0.504-5.031l0.771,0.079  c0.584,0.06,1.104-0.337,1.16-0.887l2.622-25.701c0.056-0.551-0.373-1.044-0.958-1.104l-0.819-0.084l15.733-156.951  c2.282-1.441,3.802-3.979,3.802-6.878c0-4.495-3.643-8.138-8.138-8.138s-8.138,3.643-8.138,8.138c0,2.315,0.971,4.399,2.523,5.881  l-15.732,156.935l-0.629-0.064c-0.584-0.06-1.104,0.337-1.16,0.887l-2.622,25.702c-0.056,0.55,0.373,1.043,0.958,1.103l0.677,0.069  l-2.602,25.951c-8.117,1.549-14.275,8.689-14.275,17.251c0,9.688,7.882,17.571,17.571,17.571S183,364.26,183,354.571  c0-7.333-4.52-13.625-10.917-16.254l1.087-10.838c10.366,2.949,18.097,11.607,19.987,22.092h-2.299c-2.761,0-5,2.238-5,5  s2.239,5,5,5h130.593c2.16,7.259,8.886,12.571,16.837,12.571c9.688,0,17.571-7.883,17.571-17.571S347.977,337,338.288,337z   M173,354.571c0,4.175-3.396,7.571-7.571,7.571s-7.571-3.396-7.571-7.571c0-2.529,1.251-4.767,3.162-6.143l-0.566,5.644  c-0.275,2.748,1.729,5.198,4.477,5.474c0.169,0.018,0.338,0.025,0.504,0.025c2.537,0,4.711-1.923,4.969-4.501l0.565-5.642  C172.225,350.78,173,352.585,173,354.571z M338.288,362.143c-2.258,0-4.282-0.999-5.671-2.571h5.671c2.762,0,5-2.238,5-5  s-2.238-5-5-5h-5.671c1.389-1.572,3.413-2.571,5.671-2.571c4.175,0,7.571,3.396,7.571,7.571S342.463,362.143,338.288,362.143z"></path></svg>