<svg height='100px' width='100px'  fill="#000000" xmlns="http://www.w3.org/2000/svg" viewBox="0 0 128 128" x="0px" y="0px"><g><path d="M111.707,59.49l-.181-.107c-.022.011-.034.017-.045.011a1.1,1.1,0,0,0-.3.012,5.587,5.587,0,0,0-1.448.514c-.464.221-.883.425-1.234.6a2.6,2.6,0,0,1-1.233.413c-.481.26-.99.543-1.545.843a18.791,18.791,0,0,1-1.946.939l-.322.1a2.155,2.155,0,0,1-.368.074,6.313,6.313,0,0,1-.656.062,4.839,4.839,0,0,1-1.4-.158,8,8,0,0,1-2.546-1.285,9,9,0,0,0-2.319-1.273c-.21-.079-.408-.09-.606-.147a4.124,4.124,0,0,0-.656-.039,8.534,8.534,0,0,0-1.477.192,16.1,16.1,0,0,1-3.5.566c-.057.2-.113.407-.187.622-.153.351-.294.73-.486,1.086.175.034.356.063.543.108a9.411,9.411,0,0,1,3.095,1.55,13.327,13.327,0,0,1,2.817,2.478,11.345,11.345,0,0,1,2.1,3.621,12.058,12.058,0,0,1,.639,3.74A10.123,10.123,0,0,1,101.8,75.53c5.414,3.615-.691,9.748-4.589,12.193a36.118,36.118,0,0,1,5.233,2.15c2.377,1.239,6.467,4.367,4,7.462-2.433,3.061-8.346,1.737-11.531.917-5.663-1.466-10.325-5.036-15.893-6.614a1.432,1.432,0,0,1-.2-.079c-.356.164-.713.316-1.058.464,2.444,2.97-.243,8.413-4.328,7.943-3.468-.4-6.421-5.149-3.366-7.327a.338.338,0,0,1-.034-.011.343.343,0,0,1-.062-.034.79.79,0,0,1-.142-.051,5.284,5.284,0,0,1-2.455-6.97,5.893,5.893,0,0,1,.95-1.415c-7.168,3.225-14.812,10.031-23.01,5.743-4.09-2.144-5.313-6.269-8.645-9.137-1.629-1.392-3.151-1.6-4.062-3.695a14.193,14.193,0,0,1-.99-4.769,3.568,3.568,0,0,1-2.773-.493c-1.459-1.114-1.471-2.9-1.058-4.549a.788.788,0,0,1,.046-.13c-.934-1.052-1.76-2.234-2.3-2.862-.023-.034-.045-.063-.062-.091a4.389,4.389,0,0,1-3.338-.956.9.9,0,0,1-.21-.159.955.955,0,0,1-.17-.2c-1.906-2.275-1.1-5.584,1.206-7.344a6.17,6.17,0,0,1,1.759-.922c-2.246-3.406-3.677-6.931-2.914-11.123a.851.851,0,0,1,1.415-.379c.718.831,1.148,1.77,1.782,2.647a6.018,6.018,0,0,0,2.105,1.771.772.772,0,0,1,.124-.215c1.754-2.229,4.221-1.708,6.258-.226a.076.076,0,0,0,.039.006c2.054.537,5.1,1.94,7.208,1.222a8.258,8.258,0,0,0,1.251-.56c-.023-.114-.051-.227-.074-.346-.622.119-1.25.221-1.895.3a9.23,9.23,0,0,1-1.845.1c-.192-.023-.407-.028-.582-.068l-.034-.583c-.017-.192-.012-.4-.017-.6l-.012-.481a29.607,29.607,0,0,1,.442-4.7c.011-.085.028-.164.045-.243a28.213,28.213,0,0,1-4.232.249c-.232-.006-.458-.006-.685-.029l-.679-.085a8.629,8.629,0,0,1-1.318-.26,8.359,8.359,0,0,1-1.25-.4c-.2-.079-.413-.147-.6-.237s-.362-.181-.537-.272C28,39.705,27.293,39.36,26.62,39c-.65-.374-1.284-.736-1.906-1.092-1.234-.691-2.365-1.4-3.474-1.975L19.627,35.1a7.43,7.43,0,0,0-1.488-.623,6.648,6.648,0,0,0-2.812-.294,2.575,2.575,0,0,0-1.052.391,3.318,3.318,0,0,0-.753.786,8.939,8.939,0,0,1-.763,1.1,3.035,3.035,0,0,1-.56.481,4.945,4.945,0,0,1-.617.322,2.314,2.314,0,0,1-.362.1c-.1.017-.193.04-.283.057a10.912,10.912,0,0,1-1.879.039,1.668,1.668,0,0,1-.56,1.1,1.773,1.773,0,0,1-.973.5,2.341,2.341,0,0,1-.99-.034A3.55,3.55,0,0,1,4.8,37.974c-.13-.142-.22-.249-.334-.385a3.2,3.2,0,0,1-.373-.6,1.027,1.027,0,0,1-.023-.787,1.687,1.687,0,0,1,.21-.367l.135-.17.091-.108a15.422,15.422,0,0,0,1.273-1.7A5.694,5.694,0,0,1,7.7,31.982a19.957,19.957,0,0,1,2.455-1.244A20.131,20.131,0,0,1,13,29.753a15.882,15.882,0,0,1,3.259-.549A34.01,34.01,0,0,1,19.78,29.1c.611.023,1.233.011,1.867.062s1.267.113,1.918.17a54,54,0,0,1,8.283,1.5q1.086.306,2.212.623c.368.09.77.265,1.16.4.368.158.764.339,1.126.514,1.363.623,2.7,1.1,4.034,1.669.141,0,.277-.1.419-.079s.316-.034.39-.017l.266.046a48.557,48.557,0,0,0,6.172.905c.453.022.9.045,1.324.062s.86.023,1.268.028c.814.023,1.573.04,2.274.057,2.325.062,4.045.136,5.273.221a13.368,13.368,0,0,1,3.021-.068l.481.051c.085-.006.164-.012.255-.017.413,0,.894.011,1.431.022s1.143.029,1.811.091c1.3.085,2.823.26,4.634.5a11.772,11.772,0,0,0,1.476-1.595,6.73,6.73,0,0,1,.934-.911c.339-.266.633-.441.939-.662.588-.4,1.148-.775,1.68-1.132.057-.039.119-.079.181-.124.227-.26.476-.526.753-.82.175-.187.356-.374.543-.578s.356-.424.537-.673a19.1,19.1,0,0,1,1.313-1.663,4.687,4.687,0,0,1,.453-.43,3.286,3.286,0,0,1,.554-.413,3.746,3.746,0,0,1,1.4-.5,5.855,5.855,0,0,1,3.06.447A6.764,6.764,0,0,1,86,28.871a4.36,4.36,0,0,1,.849,1.884,3.706,3.706,0,0,1,0,1.142l-.051.238c0,.006-.012.006,0,.017l.051.045.051.04.028.023.011.011.045.051.38.4a5.762,5.762,0,0,1,.633.944,5.485,5.485,0,0,1,.623,2.269,8.281,8.281,0,0,1-1.273,4.617c-.1.181-.221.356-.34.526a3.574,3.574,0,0,1-.385.515,8.465,8.465,0,0,1-.894.967,12.664,12.664,0,0,1-.99.826c-.169.131-.333.261-.5.385l-.475.374c-.131.113-.283.22-.4.328-.176.175-.351.35-.521.537a6.957,6.957,0,0,0-.622.832c-.181.277-.356.577-.537.882a15.485,15.485,0,0,1,4.056.691,27.783,27.783,0,0,1,5.664,2.71,14.651,14.651,0,0,0,5.007,1.957c3.457.453,6.874-.147,10.133.034a24.217,24.217,0,0,1,4.6.815,32.011,32.011,0,0,1,4.119,1.115,7.724,7.724,0,0,1,.973.418,5.587,5.587,0,0,1,.911.515,6.2,6.2,0,0,1,.832.611,8.2,8.2,0,0,1,.724.662,14.976,14.976,0,0,1,2.195,2.9c.583.973,1.075,1.9,1.556,2.767a16.923,16.923,0,0,1,1.3,2.625A3.963,3.963,0,0,1,124,66.025a1.961,1.961,0,0,1-.713,1.448,5.678,5.678,0,0,1-1.1.628c-.351.17-.7.3-1.024.43-.668.238-1.29.442-1.884.595-.147.033-.3.073-.436.107a5.778,5.778,0,0,1-.577.113c-.255.045-.5.085-.73.113-.017.232-.034.464-.057.708a7.739,7.739,0,0,1-.379,2.11,1.741,1.741,0,0,1-.956,1.075c-.09.028-.164.056-.271.085a1.808,1.808,0,0,1-.487.017,1.327,1.327,0,0,1-.741-.419,2.826,2.826,0,0,1-.577-1.194,6.724,6.724,0,0,1-.17-1.137,7.959,7.959,0,0,1-.006-1.024,3,3,0,0,1-1.912-4.617.418.418,0,0,1,.074-.09,3.934,3.934,0,0,1-.419-1.137,3.757,3.757,0,0,1-.085-.747v-.515l.011-.153c.006-.079.017-.147.023-.221a.423.423,0,0,1-.023-.1,3.345,3.345,0,0,1,.051-.995,9.282,9.282,0,0,0,.176-1.29A.568.568,0,0,0,111.707,59.49ZM84.3,78.727a.064.064,0,0,0,.017-.034l.034-.062c.04-.114.079-.227.113-.334a8.021,8.021,0,0,1,.7-1.584l.255-.374c.1-.113.2-.215.305-.322a3.652,3.652,0,0,1,.628-.515,5.108,5.108,0,0,1,.623-.362c.152-.079.305-.153.452-.215-.441-.046-.888-.091-1.352-.125A24.48,24.48,0,0,0,81,74.812c-1.636.209-3.4.769-4.266,2.178,1.086.973,2.167,1.957,3.275,2.891a5.867,5.867,0,0,1,2.133-.945,9.44,9.44,0,0,1,2.088-.209H84.3Zm38.6-12.753a2.972,2.972,0,0,0-.226-1.047,16.794,16.794,0,0,0-1.284-2.4c-.515-.866-1.024-1.777-1.6-2.688a9.749,9.749,0,0,0-5.025-4.441,30.567,30.567,0,0,0-3.954-1c-.357-.073-.725-.169-1.092-.254s-.7-.142-1.058-.215a15.836,15.836,0,0,0-2.2-.26c-1.521-.051-3.123.022-4.837.124a30.441,30.441,0,0,1-5.448-.091,11.031,11.031,0,0,1-1.652-.367,18.532,18.532,0,0,0-2.473,2.2c-.124.141-.277.283-.4.447-.1.17-.215.345-.328.526a5.245,5.245,0,0,0-.3.6,4.769,4.769,0,0,0-.265.691c-.136.384-.249.814-.363,1.273a24.292,24.292,0,0,0,2.7-.493A10.421,10.421,0,0,1,94.9,58.37a5.452,5.452,0,0,1,.916.068,6.473,6.473,0,0,1,.883.221,10.567,10.567,0,0,1,2.7,1.51,6.847,6.847,0,0,0,2.031,1.115,3.583,3.583,0,0,0,.967.136,4.678,4.678,0,0,0,.487-.029,1.822,1.822,0,0,0,.181-.028l.209-.062a18.03,18.03,0,0,0,1.8-.787c1.16-.554,2.19-1.052,3.112-1.431a12.265,12.265,0,0,1,2.472-.786,3.117,3.117,0,0,1,1.1-.012,1.071,1.071,0,0,1,.82.577,1.36,1.36,0,0,1,.091.719c-.006.011-.006.023-.012.034a1.153,1.153,0,0,1,0,.243,4.3,4.3,0,0,1-.283,1.115c-.006.119-.011.232-.011.356a8.8,8.8,0,0,0,.118,2.314,6.981,6.981,0,0,0,1.46,2.371c1.03,1.38,1.245.283,1.347-.8a3.141,3.141,0,0,0-.43-1.584c-.238-.452-.453-.837-.566-1.114s-.136-.447-.085-.476.175.085.362.306a12.249,12.249,0,0,1,.792.973,3.9,3.9,0,0,1,.475.8c.023.057.046.108.068.165a4.129,4.129,0,0,0,.187-1c.017-.5-.124-.775-.045-.82.028-.017.085.034.175.164a1.584,1.584,0,0,1,.243.628,6.278,6.278,0,0,1-.277,2.359,28.824,28.824,0,0,1-1.239,3.168c-.022.08-.045.159-.062.244a.687.687,0,0,1-.068.367c-.011.085-.017.187-.023.272a7.972,7.972,0,0,0,.029.973,6.226,6.226,0,0,0,.158.973,2.063,2.063,0,0,0,.357.787.421.421,0,0,0,.192.13.074.074,0,0,1,.062.028,1.145,1.145,0,0,1,.249-.051l.023-.045c.017-.011.034-.051.056-.062.034-.029.068-.079.108-.113l.107-.159.091-.192a8.061,8.061,0,0,0,.373-1.85c.034-.323.074-.64.108-.945a5.641,5.641,0,0,1,.209-.939c.17-.538.328-1.041.475-1.5a7.337,7.337,0,0,1,1.29-2.914,19.289,19.289,0,0,1-.622,3.033c.164-.153.317-.278.464-.391l.187-.187c.758-.775,1.521-1.318,1.72-1.131s-.244.99-1.053,1.81a4.093,4.093,0,0,1-1.46.974.959.959,0,0,0-.1.22.708.708,0,0,0-.04.306c.011.1.028.266.181.186a2.758,2.758,0,0,0,.43-.107,1.914,1.914,0,0,0,.232-.068c.136-.045.272-.085.407-.13.555-.176,1.149-.4,1.771-.656.3-.142.628-.278.939-.442a4.583,4.583,0,0,0,.86-.532A.884.884,0,0,0,122.9,65.974Zm-8.5,1.862a.835.835,0,0,1-.238-.1,1.89,1.89,0,0,1-.43-.419c-.181-.238-.362-.475-.543-.724-.13-.164-.266-.34-.4-.515a1.755,1.755,0,0,0,1.329,2.427A6.574,6.574,0,0,1,114.4,67.836ZM101.868,97.392c1.449-.057,5.206-.594,3.129-3.435a8.052,8.052,0,0,0-2.846-2.325c-5.137-2.67-10.891-3.791-16.237-5.957-3.972-1.6-6.914-4.787-10.083-7.537-4.515-3.909-9.923-6.681-15-9.771-3.762-2.291-7.383-4.8-11.084-7.179h-.3l.017-.181c-.94-.6-1.884-1.194-2.841-1.771a133.894,133.894,0,0,0-14.9-7.91c-1.968-.865-4.486-1.5-6.251-2.789a9.318,9.318,0,0,1-2.2-2.529c.08,3.038,1.511,5.709,3.271,8.272a3.815,3.815,0,0,1,2.727,1.035,4.847,4.847,0,0,1,.633.764,3.465,3.465,0,0,1,3.123,1.114c.029.034.051.068.08.1,2.019.8,3.96,1.675,5.075,3.678A.852.852,0,0,1,38,62.036c5.228,1.992,9.431,6.247,14.235,9.036,6.28,3.643,12.871,7.055,18.67,11.445a1.238,1.238,0,0,1,.17.17,4.778,4.778,0,0,1,1.33,0c.5-1.55,2.037-1.307,3.327-.345,1.844,1.369,4.763,2.439,6.019,4.441.985,1.579.3,2.744-.939,3.65,4.69,1.652,8.775,4.69,13.647,5.946A25.327,25.327,0,0,0,101.868,97.392Zm-.848-15.231c2-3.276.447-5.992-3.412-6.518-5.522-.758-8.69,4.572-12.3,7.87a62.513,62.513,0,0,0,9.754,3.519.832.832,0,0,1,.232-.175A13.494,13.494,0,0,0,101.02,82.161Zm-4.278-8.345a10.162,10.162,0,0,0-.537-2.982,9.766,9.766,0,0,0-1.771-3.106,12.022,12.022,0,0,0-2.461-2.212,8.163,8.163,0,0,0-2.552-1.369l-.305-.074-.3-.028a2.717,2.717,0,0,0-.605-.006,3.306,3.306,0,0,0-.606.091,2.769,2.769,0,0,0-.577.153,11.863,11.863,0,0,0-2.15,1.041,16.84,16.84,0,0,1-2.093.973c-.328.141-.645.271-.951.4q-.476.153-.916.289c-.583.181-1.121.362-1.624.492-.5.113-.962.221-1.381.311a19.98,19.98,0,0,1-2.042.362c-1.058.136-1.528.131-1.55.012s.4-.323,1.4-.657c.5-.164,1.154-.362,1.946-.633.4-.13.838-.272,1.319-.43s.979-.379,1.527-.589c.278-.1.56-.215.855-.328.288-.136.582-.277.882-.43a16.863,16.863,0,0,0,1.924-1c.079-.045.158-.1.238-.147q-.663.128-1.426.289c-.538.124-1.115.26-1.737.407-.611.187-1.267.385-1.963.6-1.4.419-3.027,1.018-4.917,1.414-.26.057-.532.114-.8.165-.125.05-.238.107-.362.152l-.034-.085c-.091.012-.181.029-.272.046-.509.09-1.035.141-1.584.186-.538.068-1.109.04-1.686.063-.294-.017-.589-.04-.888-.057a7.382,7.382,0,0,1-.889-.085,23.808,23.808,0,0,0-3.5-.317,6.256,6.256,0,0,0-2.133.436c3.146,1.9,6.314,3.762,9.4,5.76a31.492,31.492,0,0,1,2.914,2.166,10.147,10.147,0,0,1,1.392-2.512,12.8,12.8,0,0,1,2.11-2.178,24.961,24.961,0,0,1,3.434-2.353c1.777-1.019,2.512-1.3,2.654-1.109s-.374.831-1.975,2.1c-.786.645-1.867,1.426-3.078,2.535a11.609,11.609,0,0,0-2.467,3.067,6.493,6.493,0,0,1,1.109-.674,10.056,10.056,0,0,1,3.073-.831,25.336,25.336,0,0,1,5.425.039c1.647.159,3.135.379,4.493.572.684.1,1.329.186,1.94.26.266.028.521.056.775.085.051,0,.1.017.153.022.017-.022.011-.068.011-.107l0-.062a.313.313,0,0,0-.045-.131,3.828,3.828,0,0,0-.51-.916,7.146,7.146,0,0,0-1.431-1.381,20.608,20.608,0,0,0-2.6-1.635c-1.4-.758-2-1.109-1.94-1.25s.73-.04,2.274.515a14.875,14.875,0,0,1,2.92,1.437,7.574,7.574,0,0,1,1.776,1.516,4.859,4.859,0,0,1,.764,1.211,1.781,1.781,0,0,1,.136.487c.017.073.034.152.051.226A7.3,7.3,0,0,1,96.742,73.816Zm-4.877,1.6c-.141-.011-.288-.028-.435-.04a7.09,7.09,0,0,0-1.528.147,6.825,6.825,0,0,0-1.742.623,3.576,3.576,0,0,0-.476.266,4.474,4.474,0,0,0-.464.305,2.532,2.532,0,0,0-.4.368c-.062.062-.118.13-.181.2l-.135.238a6.7,6.7,0,0,0-.5,1.295l-.062.2-.085.261c-.085.243-.17.486-.26.735l-.13.379c0,.045-.051.028-.085.028h-.108l-.215-.005-.441-.017L84.4,80.39h-.17a6.075,6.075,0,0,0-2.823.623,27.762,27.762,0,0,0,2.337,1.629C86.383,80.373,88.963,77.278,91.865,75.417Zm-.678-20.724a10.163,10.163,0,0,1,2.41-1.675,23.655,23.655,0,0,1-3-1.437,26.419,26.419,0,0,0-5.34-2.552,14.48,14.48,0,0,0-6.111-.5,12.077,12.077,0,0,0-5.986,2.291l-.1-.124c-.152.367-.3.718-.458,1.069-.085.192-.175.39-.26.588s-.147.379-.221.577a13.3,13.3,0,0,0-.69,2.49,9.661,9.661,0,0,1-2.959,5.454,25.483,25.483,0,0,1-2.489,2.059c-.945.708-1.9,1.415-2.761,2.2a8.194,8.194,0,0,1,1.092-.1,24.35,24.35,0,0,1,3.756.362l.419.057.4.028c.26.023.52.04.78.062.527-.017,1.036.017,1.534-.039.5-.034.99-.068,1.465-.148a.039.039,0,0,0,.023,0A19.385,19.385,0,0,0,76.6,62.981c.3-.215.594-.424.883-.622.254-.2.5-.379.735-.6.481-.413.906-.86,1.307-1.279.792-.859,1.471-1.691,2.105-2.415s1.2-1.347,1.726-1.867a9.658,9.658,0,0,1,2.551-1.89c.606-.266.905-.289.956-.192.136.26-.837.752-2.625,2.9-.441.537-.939,1.182-1.516,1.941-.521.678-1.1,1.459-1.811,2.3a6.8,6.8,0,0,0,2.948-1.03,13.733,13.733,0,0,0,2.523-2.173c1.16-1.273,1.7-1.725,1.9-1.578.187.13-.012.8-.968,2.319a10.356,10.356,0,0,1-2.517,2.728,7.329,7.329,0,0,1-.928.56c.537.062,1.052.113,1.533.13.209.011.4.028.611.034s.424,0,.628.011a3.554,3.554,0,0,0,.871-.04c.029,0,.181-.135.345-.469.165-.289.283-.589.425-.877.458-1.205.707-2.473,1.16-3.565a8.308,8.308,0,0,1,.78-1.5c.159-.215.317-.425.464-.623A6.357,6.357,0,0,1,91.187,54.693Zm-5.268-15a6.75,6.75,0,0,0,1.086-3.672,3.883,3.883,0,0,0-.424-1.612,3.626,3.626,0,0,0-.436-.674l-.265-.3-.034-.034-.074-.067-.153-.131-.305-.265-.3-.261c-.04-.017-.006-.056,0-.09l.04-.108.067-.2c.046-.142.091-.278.148-.419l.056-.226a2.411,2.411,0,0,0,.011-.64,2.878,2.878,0,0,0-.531-1.227,5.4,5.4,0,0,0-2.145-1.686,4.6,4.6,0,0,0-2.325-.442,2.612,2.612,0,0,0-.945.283,4.3,4.3,0,0,0-.781.6c-.486.47-.905,1.008-1.324,1.494-.045.051-.09.1-.135.147a7.46,7.46,0,0,1,2.308-.328,6.885,6.885,0,0,1,2.563.555,6.2,6.2,0,0,1,2.5,1.855c.379.515.464.787.379.866s-.345-.051-.832-.379a8.977,8.977,0,0,0-2.461-1.211,6.462,6.462,0,0,0-4.809.43c-.226.13-.47.249-.7.4s-.453.3-.736.5c-.526.374-1.08.764-1.669,1.177-.266.2-.6.413-.843.611a4.531,4.531,0,0,0-.616.611,6.859,6.859,0,0,1,.7-.022c.362,0,.753.022,1.16.039s.809.011,1.318,0a25.684,25.684,0,0,1,3.514.085c.17.017.345.034.526.062s.356.079.543.125.374.073.56.136.374.147.566.22a5.842,5.842,0,0,1,1.132.577,6.943,6.943,0,0,1,1.063.826,7.444,7.444,0,0,1,.956,1.019,5.832,5.832,0,0,1,.793,1.352,3.731,3.731,0,0,1,.226.894c.005-.006.011-.011.011-.017l.176-.193.147-.22C85.732,39.994,85.834,39.847,85.919,39.694ZM83.2,42.2a1.86,1.86,0,0,0,.346-1.94,5.1,5.1,0,0,0-1.313-1.816,6.213,6.213,0,0,0-3.508-1.692,31.809,31.809,0,0,0-3.321-.272A13.008,13.008,0,0,1,74,36.356c-.407-.062-.781-.119-1.126-.17a8.392,8.392,0,0,0-1.329-.1c-.045.057-.091.108-.142.164a7.815,7.815,0,0,1,1.273.5,5.36,5.36,0,0,1,2.643,2.874,6.88,6.88,0,0,1,.435,2.122,7.408,7.408,0,0,1-.294,2.246c-.407,1.477-1.154,2.8-1.533,4.2l-.04.153a14.782,14.782,0,0,1,4.843-1.477v-.006c.2-.186.413-.373.617-.554a6.442,6.442,0,0,0,.594-.577c.379-.419.747-.815,1.12-1.251.125-.158.266-.316.408-.475.067-.073.124-.158.192-.232a6.456,6.456,0,0,1,.526-.52l.141-.125A9.309,9.309,0,0,0,83.2,42.2ZM80.51,88.249c.193-1.262-3.191-2.784-4.068-3.327-.1-.057-.181-.124-.277-.187a.711.711,0,0,1-.079.113,5.009,5.009,0,0,1-.2,6.139c.611-.271,1.233-.515,1.844-.792C78.468,89.861,80.369,89.205,80.51,88.249ZM73.721,98.3c2.365.068,4.5-3.491,2.7-5.285.1,1.381-.277,2.75-1.912,3.038a2.444,2.444,0,0,1-2.687-.775,3.445,3.445,0,0,1-.442-1.476C68.855,94.925,71.877,98.246,73.721,98.3Zm1.154-8.645a3.353,3.353,0,0,0-.616-4.289c-1.834-1.562-4.645-1.454-5.455,1.177a3.608,3.608,0,0,0,1.811,4.486A3.354,3.354,0,0,0,74.875,89.658Zm-.628,4.718c.617-.215.64-.865.515-1.5a.946.946,0,0,1-.305-.594,5.093,5.093,0,0,1-1.432.594,4.227,4.227,0,0,0,.181,1.409C73.342,94.625,74,94.461,74.247,94.376Zm-.226-50.8a5.828,5.828,0,0,0,.277-1.8,5.449,5.449,0,0,0-.305-1.652,3.973,3.973,0,0,0-1.924-2.212,7.5,7.5,0,0,0-1.731-.645h-.006c-.322-.085-.651-.159-.967-.221q-2.428-.441-4.238-.7a7.349,7.349,0,0,1,1.38.855c.532.452.713.7.645.792s-.379.034-.978-.221a16.176,16.176,0,0,0-2.971-.9,9.227,9.227,0,0,0-1.154-.181c-.209-.023-.424-.046-.651-.068s-.452-.017-.7-.029a13.445,13.445,0,0,0-3.174.266,10.707,10.707,0,0,0-1.737.674c-.329.152-.668.3-1.007.464a8.011,8.011,0,0,1-1.251.435,25.935,25.935,0,0,0-3.808.481,7.181,7.181,0,0,1,1.183,1.3,9.793,9.793,0,0,1,1.013,1.867l.1.232.039.1v.011l.017.085.023.09.006.051.022-.022c.017-.034.057-.051.085-.074.1-.045.2-.1.3-.141.192-.074.385-.147.566-.2s.362-.091.537-.13a13.859,13.859,0,0,1,1.873-.221,26.392,26.392,0,0,1,2.671.023c1.346.085,1.9.13,1.923.26s-.554.356-1.9.5c-.673.079-1.539.147-2.591.294a15.231,15.231,0,0,0-1.692.322c-.141.051-.283.1-.435.142s-.272.119-.419.175a.756.756,0,0,0-.091.057l-.147.085a1.169,1.169,0,0,0-.407.413c-.289.4-.628.854-.854,1.188l-.1-.227-.113-.373q-.12-.374-.238-.764c-.085-.26-.175-.526-.26-.8-.029-.067-.04-.124-.079-.209l-.046-.107-.09-.193a8.352,8.352,0,0,0-.917-1.556A3.924,3.924,0,0,0,46.524,39.3a3.532,3.532,0,0,0-1.946.7A3.312,3.312,0,0,0,43.4,41.906a11.325,11.325,0,0,0,.142,5,7.323,7.323,0,0,1,.876-.368,3.245,3.245,0,0,1,4.057,1.76c.057.135.113.288.17.43a15.381,15.381,0,0,0,.113-1.732c.023-.362-.034-.7-.04-1.035a9,9,0,0,0-.084-.973c-.1-.651-.21-1.245-.346-1.782a5.881,5.881,0,0,0-.52-1.369,1.57,1.57,0,0,0-.323-.4.335.335,0,0,0-.073-.062.343.343,0,0,1-.062-.034c-.034-.029-.131-.023-.187-.046a.787.787,0,0,0-.7.2,2.32,2.32,0,0,0-.5.668,7.015,7.015,0,0,0-.475,1.341c-.187.741-.243,1.08-.368,1.092-.107.011-.283-.334-.288-1.166a5.005,5.005,0,0,1,.254-1.629,3.093,3.093,0,0,1,.611-1.075,1.932,1.932,0,0,1,1.556-.634,2.25,2.25,0,0,1,.481.073c.085.034.175.068.26.108a2.163,2.163,0,0,1,.227.136,2.573,2.573,0,0,1,.678.707,6.469,6.469,0,0,1,.776,1.692,15.9,15.9,0,0,1,.469,1.923,10.718,10.718,0,0,1,.136,1.087c.023.373.09.763.079,1.159a19.1,19.1,0,0,1-.973,6.252,4.434,4.434,0,0,1-.209.917,4.384,4.384,0,0,1-.521,1,21.734,21.734,0,0,1-1.318,2.529c.549.333,1.092.667,1.635,1a10.409,10.409,0,0,0,2.224-3.785c.458-1.279.735-2.354,1-3.157.52-1.624.905-2.2,1.126-2.139s.266.724.051,2.405a22.72,22.72,0,0,1-.69,3.378,12.037,12.037,0,0,1-.94,2.336,9.638,9.638,0,0,1-1.159,1.714,4.5,4.5,0,0,0,1.889-.91,10.265,10.265,0,0,0,2.077-2.326,26.214,26.214,0,0,0,1.51-2.534c.227-.413.43-.832.634-1.234.164-.328.322-.65.481-.973.187-.368.379-.786.543-1.086.243.237.481.475.718.707a2.357,2.357,0,0,0,.363.328,1.054,1.054,0,0,0,.141.074c.023,0,.04.022.062.028a1.763,1.763,0,0,0,.566.09,4,4,0,0,0,1.3-.248,12.759,12.759,0,0,0,2.326-1.149,35.93,35.93,0,0,0,3.174-2.246c1.573-1.233,2.184-1.771,2.325-1.652.13.1-.266.877-1.7,2.348a22.517,22.517,0,0,1-3.095,2.631c-.391.271-.815.548-1.29.814.073.012.153.017.221.029.877.147,1.227.356,1.239.588s-.362.453-1.256.617a18.175,18.175,0,0,1-1.845.2c-.526.023-1.165.034-1.895.034A6.011,6.011,0,0,0,61.489,55.4a8.488,8.488,0,0,0,3.033.6c.8.017,1.374-.006,1.748.005s.566.074.6.187-.09.26-.441.453a5.819,5.819,0,0,1-1.833.56,7.734,7.734,0,0,1-3.661-.334,7.178,7.178,0,0,1-3.434-2.54l-.034.067a27.077,27.077,0,0,1-1.573,2.727,11.953,11.953,0,0,1-2.4,2.716,7.5,7.5,0,0,1-1.375.854c.826.538,1.646,1.087,2.467,1.641,1.85,1.256,3.74,2.45,5.646,3.621a12.76,12.76,0,0,1,2.1-2.319c.883-.77,1.783-1.426,2.631-2.06a13.1,13.1,0,0,0,4.006-4.057,9.1,9.1,0,0,0,.854-2.466c.1-.442.2-.9.323-1.358.068-.232.135-.464.2-.69.085-.221.17-.436.255-.657s.164-.43.249-.639.181-.4.271-.6c.182-.4.351-.781.51-1.148a10.73,10.73,0,0,0,.435-1.092c.057-.181.119-.357.176-.532l.09-.266.091-.3C72.9,46.121,73.664,44.825,74.021,43.575ZM67.554,82.2c-1.754-1.211-3.564-2.348-5.4-3.451-1.245.051-2.4.1-3.452.124-1.171-.017-2.229-.028-3.179-.039S53.743,78.8,53,78.778s-1.4-.063-1.952-.046c-2.229,0-3.106-.147-3.134-.384s.8-.5,3.078-.821c.571-.1,1.228-.113,1.98-.158s1.6-.085,2.552-.113,1.991-.034,3.157-.057l.786-.034c-1.522-.882-3.055-1.754-4.583-2.619-.481.073-.933.135-1.352.2-.554.119-1.064.22-1.522.305a21.934,21.934,0,0,1-2.246.368c-1.171.085-1.624-.04-1.663-.272s.35-.531,1.4-.905c.521-.187,1.222-.447,2.133-.713.306-.085.639-.175,1-.271-.419-.238-.837-.476-1.256-.719-1.024-.594-2.026-1.267-3.016-1.969q-.619.756-1.12,1.307a13.756,13.756,0,0,1-1.3,1.188c-.7.549-1.063.645-1.233.476s-.1-.561.345-1.29a15.814,15.814,0,0,1,.973-1.37c.272-.379.594-.82.968-1.3-3.485-2.563-6.937-5.307-11.044-6.438a1.058,1.058,0,0,1-.238-.108,3.168,3.168,0,0,0-1.561.99l-.017.017a2.116,2.116,0,0,1,0,.464.976.976,0,0,1,.169.113,7.237,7.237,0,0,1,.594.594.822.822,0,0,1,.572-.249c1.171-.056,3.18-.356,4.051.708a6.467,6.467,0,0,1,.933,3.417c-.175,3.655-3.92,5.4-5.1,8.622.317.244.673.481,1.109.775a13.681,13.681,0,0,1,2.925,2.756c1.29,1.584,2.371,3.31,3.683,4.764,2.444-1.59,4.413-2.45,7.152-.968,1.844,1,4.051,1.935,3.909,4.062,3.666-.888,7.095-3.106,10.518-4.978-.973.039-1.867.056-2.665.1a28.1,28.1,0,0,0-4.605.51c-1.132.237-1.907.452-2.416.582s-.77.119-.82.017.1-.3.548-.622a9.5,9.5,0,0,1,2.371-1.143,20.4,20.4,0,0,1,4.815-.911C63.509,82.5,65.415,82.467,67.554,82.2ZM54.14,36.48c.248-.107.486-.215.729-.317-.718.029-1.505.051-2.382.074-.707.017-1.465.04-2.285.062-.408.006-.832.023-1.268.029s-.911,0-1.386-.006c-2.342-.028-4.566-.73-6.834-.939a11.366,11.366,0,0,1-.261,2.223c-.3,1.273-.565,2.6-.786,4.012a23.054,23.054,0,0,0-.34,4.26,3.057,3.057,0,0,0,.51.028,5.918,5.918,0,0,0,1.782-.158,11.009,11.009,0,0,1,.164-4.283c.622-2.382,2.127-3.248,4.447-3.485,2.433-.249,4.594-.815,6.993-1.189A6.722,6.722,0,0,0,54.14,36.48ZM52.329,89.42c.317-1.652-2.444-2.846-3.774-3.293-1.669-.56-2.9.209-4.249,1.086a8.9,8.9,0,0,0,3.338,1.811A11.962,11.962,0,0,0,52.329,89.42ZM44.832,56.2c1.737-1.284,3.027-2.155,2.761-4.667-.1-.968-.265-2.467-1.1-3.118a1.958,1.958,0,0,0-2.252.062A13.144,13.144,0,0,1,45.653,52.7c.1,1.092-1.6,1.081-1.7,0a11.032,11.032,0,0,0-1.211-3.434c-.221.1-.436.181-.657.254a6.658,6.658,0,0,1,.736,2.518.848.848,0,0,1-.849.849.862.862,0,0,1-.848-.849,4.071,4.071,0,0,0-.787-2.133h-.005c-.232.023-.47.04-.708.045.255.645.493,1.3.713,1.958.351,1.041-1.29,1.482-1.635.453-.26-.792-.526-1.579-.86-2.343-.022-.062-.045-.124-.062-.186-.645-.1-1.3-.232-1.963-.4a8.114,8.114,0,0,1,1.126,2.093.8.8,0,0,1,.034.419l.339.169Q41.138,54.053,44.832,56.2Zm-5.4-10.28v-.011h-.1v.005A.582.582,0,0,1,39.429,45.923ZM39.1,36.277c.073-.3.13-.572.192-.889a28.3,28.3,0,0,1-3.644-1.544c-.356-.17-.7-.3-1.041-.447-.345-.113-.662-.249-1.041-.345-.724-.2-1.437-.4-2.138-.606a54.578,54.578,0,0,0-8.034-1.5c-.628-.062-1.245-.124-1.856-.181s-1.2-.051-1.788-.079a32.959,32.959,0,0,0-3.366.062,14.865,14.865,0,0,0-3,.447,18.977,18.977,0,0,0-2.676.866A18.35,18.35,0,0,0,8.374,33.17a4.451,4.451,0,0,0-1.55,1.443,16.141,16.141,0,0,1-1.415,1.748c-.3.278-.192.289.232.866a2.508,2.508,0,0,0,1.16.792,1.258,1.258,0,0,0,.566.062.608.608,0,0,0,.317-.107.543.543,0,0,0,.209-.232,1.207,1.207,0,0,0-.17-.249.6.6,0,0,0-.107-.107,1.514,1.514,0,0,0-.159-.108l-.2-.13c-.26-.175-.481-.277-.679-.407.3-.283.56-.555.787-.81.068-.1.136-.2.2-.294.056-.079.1-.164.147-.243.187-.323.317-.611.436-.832.232-.441.39-.628.447-.6s.028.254-.085.735c-.091.373-1.155,1.63-.86,1.952.09.1.7-.006.763-.074a2.861,2.861,0,0,0,.131-.684,3.537,3.537,0,0,1,1.442-2.229c.7-.538,1.115-.645,1.155-.549.033.079-.232.317-.781.95a10.2,10.2,0,0,0-.945,1.262,3.089,3.089,0,0,0-.39.866.42.42,0,0,0,.2.481c.04.028.091-.034.136-.034.028-.023.475-.136.8-.215.169-.046.345-.085.526-.13.085-.023.175-.046.266-.068s.181-.051.181-.057a2.02,2.02,0,0,0,.69-.532,7.919,7.919,0,0,0,.606-.979,4.52,4.52,0,0,1,1.058-1.176,3.824,3.824,0,0,1,1.595-.674,7.9,7.9,0,0,1,3.468.238,9.137,9.137,0,0,1,1.737.679c.543.266,1.1.549,1.68.832,1.155.577,2.309,1.273,3.548,1.946l1.89,1.058c.65.322,1.318.656,2.008,1,.17.085.34.175.515.26s.345.13.52.2a7.167,7.167,0,0,0,1.07.334,7.344,7.344,0,0,0,1.131.215c.193.028.391.051.583.073s.4.017.6.029a33.115,33.115,0,0,0,4.515-.312c.159-.735.323-1.448.5-2.133C38.931,36.905,39.016,36.588,39.1,36.277ZM37.919,71.332c1-1.522.713-2.427.345-4.085-.21-.967-1.4-.713-2.45-.617a3.171,3.171,0,0,1,.1,2.36,5.084,5.084,0,0,1-2.636,2.772.9.9,0,0,1,.028.175,13.221,13.221,0,0,0,.583,3.638,5.968,5.968,0,0,0,.277.7C35.152,74.41,36.736,73.12,37.919,71.332ZM36.227,61.125a8.176,8.176,0,0,0-3.485-2.161c-.351.521-.7,1.047-1.081,1.539a9.05,9.05,0,0,1,1.788,1.907A16.321,16.321,0,0,1,36.227,61.125Zm-1.952,7.412a2.539,2.539,0,0,0-1.109-2.659,2.683,2.683,0,0,1-.441.2c.1.164.2.317.294.481a.791.791,0,0,1-.011.837,1.677,1.677,0,0,1-.057.164c-1.013,2.139-2.37,1.947-3.677.951-.1.747-.057,1.59.611,1.952a2.885,2.885,0,0,0,2.393-.1A3.459,3.459,0,0,0,34.275,68.537Zm-2.416-3.955c.408-.051.707-.09.623-.356a3.512,3.512,0,0,0-.73-1.2,9.912,9.912,0,0,0-1.975-1.782c-.1.159-.2.311-.311.459a1.066,1.066,0,0,1,.17.158c.73.9,1.454,1.8,2.127,2.744C31.8,64.6,31.825,64.588,31.859,64.582ZM29.749,48.65c1.692.69,3.366,1.437,5.024,2.224-1.3-2.139-4.2-4.549-6.1-2.654C29.03,48.362,29.387,48.5,29.749,48.65Zm.86,18.812c.351.147.56-.13.713-.424a32.667,32.667,0,0,0-2.891-3.978,1.452,1.452,0,0,1-.108-.164,6.211,6.211,0,0,1-1.131.742c.645.837,1.222,1.736,1.929,2.534A4.633,4.633,0,0,0,30.609,67.462Zm-7.48-5.6c3.056,2.648,7.893-2.965,4.945-5.347-2.506-2.019-6.32,1.392-5.618,4.136a3.936,3.936,0,0,0,2.88.068,3.222,3.222,0,0,0,1.584-1.307,5.689,5.689,0,0,0,.487-1.063c.084-.238.152-.346.215-.34s.1.113.113.39a2.957,2.957,0,0,1-.283,1.3,3.518,3.518,0,0,1-1.816,1.748,4.37,4.37,0,0,1-2.654.249C23.033,61.748,23.073,61.8,23.129,61.861Z"></path><path d="M102.479,94.15a1.169,1.169,0,0,1-.271,1.12,1.687,1.687,0,0,1-.821.436,3.61,3.61,0,0,1-1.335,0c-.69-.141-1.029-.333-1.029-.39.022-.074.4,0,1.069.017a3.822,3.822,0,0,0,1.154-.147,1.107,1.107,0,0,0,.509-.328.5.5,0,0,0,.074-.515,1.747,1.747,0,0,0-.47-.634,4.227,4.227,0,0,0-.769-.583,10.239,10.239,0,0,0-2-.905c-1.477-.515-3.287-.826-5.064-1.476a48.786,48.786,0,0,1-8.866-3.882,14.779,14.779,0,0,1-3.264-2.3A19.338,19.338,0,0,1,85,86.286c.554.254,1.16.531,1.81.826.323.152.657.305,1,.469s.718.289,1.092.441c.747.3,1.533.617,2.348.94.826.3,1.691.571,2.568.877s1.754.571,2.592.8,1.691.464,2.472.758a10.085,10.085,0,0,1,2.15,1.081,5.085,5.085,0,0,1,.86.724A2.444,2.444,0,0,1,102.479,94.15Z"></path><path d="M101.806,55.389c.091.1-.249.39-.475.848a4.488,4.488,0,0,0-.47,2.122l.012.752-.691-.328c-.186-.09-.379-.187-.577-.277-.492-.249-.967-.481-1.4-.69s-.821-.374-1.143-.543c-.662-.255-1.081-.481-1.058-.611s.492-.136,1.262-.034c.362.1.809.2,1.278.373.453.181.956.385,1.449.634a3.5,3.5,0,0,1,.837-1.771C101.354,55.332,101.744,55.315,101.806,55.389Z"></path><path d="M85.472,52.7a21.127,21.127,0,0,1-3.106,1.471,16.069,16.069,0,0,0-3.072,1.912c-.266.227-.543.459-.826.7s-.577.47-.877.713a5.912,5.912,0,0,0-1.477,1.562c-.005.011-.005.017-.011.022l.17.057c.056.017.045.006.073.023l.555.384-.119.272a5.136,5.136,0,0,1-1.4,1.81,8.091,8.091,0,0,1-1.7,1.126,9.529,9.529,0,0,1-3.214.99,5.26,5.26,0,0,1-2.252-.164,1.882,1.882,0,0,1-.543-.254c-.119-.074-.17-.125-.164-.153s.091-.034.226-.011a4,4,0,0,0,.572.084,6.567,6.567,0,0,0,2.065-.124,10.218,10.218,0,0,0,2.914-1.109,7.961,7.961,0,0,0,1.493-1.064,5.088,5.088,0,0,0,.877-1.012l-.051-.017a.324.324,0,0,1-.1-.017l-.532-.176.056-.356a2.327,2.327,0,0,1,.244-.747,6.288,6.288,0,0,1,1.742-1.856c.6-.475,1.183-.928,1.731-1.358a13.965,13.965,0,0,1,3.361-1.85A9.027,9.027,0,0,1,85.472,52.7Z"></path><path d="M84.725,36.062c.091.271.1.418.034.447-.141.062-.4-.442-1.126-.809a6.229,6.229,0,0,0-1.386-.487,16.212,16.212,0,0,1-1.906-.538,4.034,4.034,0,0,1-.532-.254A2.015,2.015,0,0,1,79.328,34a1.475,1.475,0,0,1-.192-.272,3.3,3.3,0,0,1-.119-.311c-.006-.017-.006-.04-.012-.057a5.279,5.279,0,0,0-1.448.521c-.39.215-.634.509-.719.435-.056-.051-.056-.373.38-.848a4.421,4.421,0,0,1,2.07-1.064l.442-.119.1.56a.861.861,0,0,0,.215.549c.045.085.175.142.266.215a2.832,2.832,0,0,0,.39.187c.571.22,1.222.373,1.8.577a5.227,5.227,0,0,1,1.505.764A2.284,2.284,0,0,1,84.725,36.062Z"></path><path d="M76.986,69.324c.045.124-.476.407-1.3.775a9.588,9.588,0,0,0-1.341.718A2.484,2.484,0,0,0,73.3,72.056l-.034.085-.282.747-.527-.554a12.107,12.107,0,0,0-2.585-2.088c-.69-.425-1.268-.572-1.239-.713.022-.108.582-.226,1.516.107A7.636,7.636,0,0,1,72.657,71.2a3.347,3.347,0,0,1,1.228-1.126,6.346,6.346,0,0,1,1.579-.611C76.375,69.244,76.94,69.205,76.986,69.324Z"></path><path d="M73.008,77.793a10.578,10.578,0,0,1,1.782,1.4A10.222,10.222,0,0,1,72.8,78.1c-.617-.384-1.369-.854-2.252-1.4-.436-.272-.894-.577-1.4-.877s-1.047-.6-1.613-.928c-1.126-.656-2.359-1.375-3.683-2.144-.645-.345-1.4-.713-2.1-1.12s-1.432-.826-2.156-1.3c-1.459-.934-3.015-1.873-4.571-2.925s-3.163-2.156-4.787-3.3-3.2-2.28-4.747-3.332c-.769-.532-1.527-1.052-2.274-1.567-.368-.255-.735-.509-1.1-.758-.373-.221-.741-.442-1.1-.662a81.122,81.122,0,0,0-8.159-4.023c-1.182-.554-2.251-.979-3.225-1.369a18.356,18.356,0,0,1-2.421-1.154,7,7,0,0,1-.82-.555,3.206,3.206,0,0,1-.544-.464c-.271-.277-.4-.43-.384-.458.056-.074.656.526,1.929,1.149a21.933,21.933,0,0,0,2.433.984c.967.334,2.1.735,3.3,1.25a69.715,69.715,0,0,1,8.334,3.887l1.154.674c.362.248.735.5,1.109.746.747.51,1.511,1.024,2.286,1.551,1.556,1.041,3.134,2.178,4.769,3.315l4.764,3.31c1.539,1.058,3.072,2,4.5,2.947.712.476,1.437.906,2.133,1.336s1.374.764,2.07,1.154c1.3.809,2.518,1.561,3.621,2.246l1.579.984c.492.323.945.651,1.369.945Z"></path><path d="M74.191,87.757a1.124,1.124,0,0,1,.034.4.9.9,0,0,1-.181.476,1.046,1.046,0,0,1-.419.322,1.855,1.855,0,0,1-.871.13,3.116,3.116,0,0,1-.821-.153,3.22,3.22,0,0,1-1.4-.82,1.292,1.292,0,0,1-.373-.8.882.882,0,0,1,.107-.464.947.947,0,0,1,.243-.283,1.533,1.533,0,0,1,.838-.34c.192-.011.311.012.334.068.073.136-.391.357-.685.741-.074.1-.074.164-.051.21a.82.82,0,0,0,.209.249,3.2,3.2,0,0,0,1.058.531,2.24,2.24,0,0,0,1.087.119c.1-.039.113-.028.147-.107.028-.023.011-.1.022-.153,0-.068-.017-.13-.022-.2-.136-.554-.328-.956-.21-1.035.1-.063.47.147.843.809A1.951,1.951,0,0,1,74.191,87.757Z"></path><path d="M70.049,48.384c.108.085-.085.526-.481,1.171a5.95,5.95,0,0,1-.831,1.075c-.176.193-.363.4-.561.6-.2.181-.418.373-.639.566-.43.385-.849.713-1.245,1.007.577.215.855.526.792.605-.045.074-.231.057-.52.012a6.1,6.1,0,0,0-1.177-.046l-1.035.085.781-.775c.48-.475,1.12-1.024,1.776-1.607.221-.181.43-.362.634-.537s.373-.345.549-.509a11.237,11.237,0,0,0,.944-.889C69.568,48.6,69.947,48.305,70.049,48.384Z"></path><path d="M69.7,42.517A10.836,10.836,0,0,1,67.09,44.4c-.424.26-.888.549-1.386.854-.5.289-1.047.595-1.612.923l-1.794,1q-.466.255-.95.527a5.629,5.629,0,0,1-1.109.514.985.985,0,0,1-.215.051,1.146,1.146,0,0,1-.255.017,1.125,1.125,0,0,1-.526-.152,2.642,2.642,0,0,1-.6-.538c-.181-.221-.351-.419-.526-.617a5.719,5.719,0,0,0-.917,1.3A7.013,7.013,0,0,1,56.029,50l-.526.509L55.4,49.8c-.385-2.512-.555-4.142-.408-4.17a11.72,11.72,0,0,1,.956,3.2c.164-.288.329-.611.5-.956a4.748,4.748,0,0,1,1.477-1.935l.3-.209.277.283c.3.3.583.639.855.956a1.731,1.731,0,0,0,.35.328c.063.034.1.04.266,0a18.719,18.719,0,0,0,1.873-.945c.628-.328,1.239-.645,1.816-.95s1.137-.578,1.658-.843.99-.515,1.426-.747A11.1,11.1,0,0,1,69.7,42.517Z"></path><path d="M39.429,45.912v.011a.582.582,0,0,0-.1-.006v-.005Z"></path><path d="M35.186,37.991c.017.062-.181.175-.571.322a2.775,2.775,0,0,1-.736.2,4.806,4.806,0,0,1-1.013.113h-.594a5.215,5.215,0,0,1-.639-.073,8.9,8.9,0,0,1-1.386-.312,16.651,16.651,0,0,1-2.9-1.323c-1.935-1.126-3.558-2.247-4.82-2.909-1.222-.667-2.1-.973-2.048-1.114.034-.108.933-.051,2.336.5a40.9,40.9,0,0,1,5,2.688,21.265,21.265,0,0,0,2.716,1.324,10.286,10.286,0,0,0,1.244.362c.2.04.391.1.572.124s.368.04.537.057a6.883,6.883,0,0,0,.939.034,4.4,4.4,0,0,0,.713-.04C34.931,37.917,35.169,37.929,35.186,37.991Z"></path><path d="M25.251,58.625a.181.181,0,0,0-.068.034l-.023.011a.122.122,0,0,1-.028.04c-.005,0-.005,0-.005.005-.012.023-.046.1-.057.119a.646.646,0,0,0-.028.1.848.848,0,0,1-1.635-.447,2.139,2.139,0,0,1,2.3-1.612.849.849,0,1,1,0,1.7,1.146,1.146,0,0,0-.243-.011h-.045c-.012,0-.017,0-.034.011S25.262,58.625,25.251,58.625Z"></path></g></svg>