<svg height='100px' width='100px'  fill="#000000" xmlns="http://www.w3.org/2000/svg" xmlns:xlink="http://www.w3.org/1999/xlink" version="1.1" x="0px" y="0px" viewBox="0 0 100 100" enable-background="new 0 0 100 100" xml:space="preserve"><path d="M74.264,28.346c1.199,0,2.176-0.976,2.176-2.176v-6.26c0-1.2-0.977-2.176-2.176-2.176h-0.093v-3.254  C74.171,6.496,67.676,0,59.692,0c-7.984,0-14.479,6.496-14.479,14.479v3.254h-0.069c-1.2,0-2.176,0.977-2.176,2.176v6.26  c0,1.2,0.977,2.176,2.176,2.176h0.069l0.01,42.708h-0.091c-1.2,0-2.176,0.977-2.176,2.177v6.26c0,1.2,0.976,2.177,2.176,2.177h0.092  v3.254c0,7.983,6.496,14.479,14.479,14.479c7.984,0,14.479-6.496,14.479-14.479v-3.254h0.069c1.199,0,2.176-0.977,2.176-2.177v-6.26  c0-1.2-0.977-2.177-2.176-2.177h-0.07l-0.01-42.708H74.264z M74.945,19.91v6.26c0,0.376-0.306,0.683-0.682,0.683h-0.093h-0.746  h-1.967c-0.377,0-0.684-0.306-0.684-0.683v-1.62v-1.628v-0.573v-1.589V19.91c0-0.376,0.307-0.683,0.684-0.683h1.967h0.746h0.093  C74.64,19.227,74.945,19.533,74.945,19.91z M72.688,71.054h-1.243c-1.2,0-2.176,0.977-2.176,2.177v0.97l-5.626-2.45  c-0.841-1.364-2.326-2.201-3.94-2.201c-1.613,0-3.1,0.837-3.94,2.201l-5.648,2.452V73.23c0-1.2-0.977-2.177-2.177-2.177h-1.22  l-0.011-42.708h1.244c1.2,0,2.176-0.976,2.176-2.176v-0.97l5.626,2.451c0.84,1.364,2.326,2.202,3.94,2.202s3.1-0.837,3.94-2.201  l5.648-2.453v0.972c0,1.2,0.976,2.176,2.177,2.176h1.22L72.688,71.054z M58.187,74.149c0-0.836,0.68-1.516,1.517-1.516  c0.836,0,1.516,0.68,1.516,1.516c0,0.059-0.011,0.114-0.017,0.17c-0.147-0.692-0.763-1.214-1.499-1.214  c-0.737,0-1.354,0.523-1.499,1.218C58.197,74.266,58.187,74.209,58.187,74.149z M59.97,77.147c0.007,0,0.014-0.002,0.021-0.003  c0.041-0.004,0.08-0.011,0.119-0.016c0.059-0.009,0.116-0.016,0.173-0.027c0.041-0.008,0.08-0.018,0.12-0.027  c0.055-0.013,0.108-0.026,0.162-0.042c0.04-0.012,0.079-0.026,0.118-0.04c0.052-0.018,0.103-0.035,0.152-0.056  c0.039-0.016,0.077-0.033,0.114-0.051c0.049-0.022,0.097-0.045,0.145-0.069c0.037-0.02,0.073-0.041,0.109-0.062  c0.046-0.026,0.091-0.053,0.135-0.082c0.035-0.023,0.069-0.047,0.104-0.071c0.042-0.03,0.084-0.062,0.125-0.094  c0.033-0.025,0.064-0.053,0.097-0.08c0.04-0.034,0.078-0.069,0.115-0.105c0.031-0.029,0.061-0.058,0.09-0.088  c0.036-0.038,0.071-0.076,0.104-0.116c0.028-0.031,0.056-0.063,0.081-0.096c0.033-0.041,0.063-0.083,0.095-0.126  c0.024-0.034,0.048-0.068,0.071-0.103c0.029-0.045,0.056-0.091,0.083-0.136c0.021-0.036,0.042-0.071,0.062-0.108  c0.024-0.048,0.048-0.097,0.069-0.146c0.018-0.038,0.036-0.074,0.052-0.112c0.021-0.052,0.039-0.104,0.057-0.156  c0.014-0.038,0.028-0.075,0.04-0.114c0.017-0.056,0.03-0.113,0.044-0.17c0.009-0.037,0.02-0.074,0.027-0.111  c0.012-0.063,0.021-0.129,0.029-0.194c0.004-0.032,0.011-0.064,0.014-0.098c0.01-0.098,0.016-0.197,0.016-0.299  c0-1.659-1.351-3.01-3.01-3.01c-1.66,0-3.011,1.351-3.011,3.01c0,0.102,0.006,0.201,0.016,0.299c0.003,0.033,0.01,0.065,0.014,0.098  c0.009,0.065,0.017,0.131,0.029,0.194c0.008,0.037,0.019,0.074,0.027,0.111c0.014,0.057,0.027,0.114,0.044,0.17  c0.012,0.039,0.026,0.076,0.039,0.114c0.019,0.053,0.037,0.104,0.058,0.156c0.016,0.038,0.034,0.075,0.052,0.112  c0.022,0.05,0.045,0.098,0.069,0.146c0.02,0.036,0.041,0.072,0.062,0.108c0.026,0.046,0.053,0.091,0.082,0.136  c0.022,0.034,0.047,0.068,0.071,0.103c0.031,0.043,0.062,0.085,0.095,0.126c0.025,0.032,0.053,0.064,0.081,0.096  c0.033,0.04,0.068,0.078,0.104,0.116c0.029,0.03,0.059,0.059,0.09,0.088c0.037,0.036,0.075,0.071,0.115,0.105  c0.032,0.027,0.064,0.055,0.098,0.08c0.04,0.032,0.082,0.063,0.124,0.094c0.035,0.024,0.069,0.048,0.104,0.071  c0.044,0.029,0.089,0.056,0.135,0.082c0.036,0.021,0.072,0.042,0.109,0.062c0.048,0.024,0.096,0.047,0.145,0.069  c0.037,0.017,0.075,0.035,0.114,0.051c0.05,0.021,0.101,0.038,0.151,0.056c0.04,0.014,0.079,0.028,0.119,0.04  c0.054,0.016,0.107,0.029,0.162,0.042c0.04,0.01,0.079,0.02,0.12,0.027c0.057,0.012,0.114,0.019,0.172,0.026  c0.04,0.006,0.08,0.013,0.12,0.017c0.007,0.001,0.014,0.003,0.021,0.003h-9.322v-1.316l6.706-2.913l0.123-0.227  c0.549-1.018,1.606-1.648,2.76-1.648s2.211,0.631,2.76,1.647l0.122,0.228l6.685,2.912v1.317H59.97z M61.209,25.25  c0,0.836-0.68,1.517-1.517,1.517c-0.836,0-1.516-0.68-1.516-1.517c0-0.058,0.011-0.114,0.017-0.17  c0.147,0.693,0.763,1.215,1.499,1.215c0.737,0,1.353-0.523,1.499-1.219C61.198,25.134,61.209,25.19,61.209,25.25z M50.126,22.252  h9.289c-0.003,0-0.007,0.001-0.01,0.002c-0.175,0.017-0.345,0.05-0.509,0.096c-0.02,0.005-0.038,0.009-0.057,0.015  c-0.159,0.047-0.311,0.108-0.458,0.179c-0.021,0.011-0.043,0.021-0.064,0.031c-0.142,0.074-0.276,0.158-0.404,0.252  c-0.021,0.015-0.041,0.031-0.062,0.046c-0.125,0.097-0.241,0.203-0.349,0.317c-0.019,0.019-0.035,0.038-0.053,0.057  c-0.105,0.118-0.202,0.244-0.288,0.378c-0.013,0.02-0.024,0.041-0.037,0.061c-0.084,0.138-0.159,0.282-0.221,0.434  c-0.008,0.019-0.014,0.038-0.021,0.056c-0.061,0.158-0.109,0.32-0.144,0.489c-0.002,0.012-0.003,0.025-0.006,0.037  c-0.032,0.178-0.052,0.36-0.052,0.546c0,1.66,1.351,3.01,3.01,3.01c1.66,0,3.011-1.351,3.011-3.01c0-0.187-0.02-0.369-0.052-0.546  c-0.003-0.012-0.004-0.025-0.006-0.037c-0.034-0.169-0.084-0.333-0.144-0.49c-0.007-0.018-0.013-0.036-0.021-0.054  c-0.062-0.152-0.137-0.297-0.222-0.436c-0.012-0.02-0.023-0.04-0.036-0.059c-0.086-0.135-0.184-0.261-0.29-0.38  c-0.017-0.019-0.032-0.037-0.05-0.055c-0.108-0.116-0.226-0.223-0.351-0.32c-0.021-0.015-0.039-0.03-0.06-0.044  c-0.129-0.095-0.264-0.18-0.407-0.254c-0.021-0.01-0.041-0.02-0.062-0.03c-0.146-0.072-0.3-0.133-0.458-0.18  c-0.019-0.005-0.037-0.009-0.056-0.014c-0.165-0.046-0.335-0.08-0.51-0.096c-0.004,0-0.007-0.001-0.011-0.002h9.312v1.317  l-6.706,2.912l-0.123,0.227c-0.549,1.017-1.606,1.649-2.76,1.649s-2.211-0.632-2.76-1.648l-0.122-0.227l-6.685-2.912V22.252z   M46.707,14.479c0-7.16,5.826-12.986,12.986-12.986s12.985,5.826,12.985,12.986v3.254h-1.22c-1.201,0-2.177,0.977-2.177,2.176v0.754  l-8.507-1.023l-1.916-0.005l-8.732,1.029V19.91c0-1.2-0.976-2.176-2.176-2.176h-1.244V14.479z M44.462,26.169v-6.26  c0-0.376,0.306-0.683,0.682-0.683h0.069h0.747h1.99c0.376,0,0.682,0.306,0.682,0.683v0.849v1.587v0.573v1.629v1.621  c0,0.376-0.306,0.683-0.682,0.683h-1.99h-0.747h-0.069C44.768,26.852,44.462,26.546,44.462,26.169z M44.45,79.49v-6.26  c0-0.377,0.306-0.683,0.682-0.683h0.092h0.747h1.967c0.376,0,0.683,0.306,0.683,0.683v1.62v1.629v0.573v1.589v0.849  c0,0.377-0.307,0.683-0.683,0.683h-1.967h-0.747h-0.092C44.756,80.173,44.45,79.867,44.45,79.49z M72.688,84.921  c0,7.16-5.825,12.985-12.985,12.985s-12.985-5.825-12.985-12.985v-3.254h1.22c1.2,0,2.177-0.977,2.177-2.177v-0.754l8.506,1.021  l1.916,0.006h0.001h0.043l8.151-0.965l0.537-0.063v0.755c0,1.2,0.976,2.177,2.176,2.177h1.243V84.921z M74.934,73.23v6.26  c0,0.377-0.306,0.683-0.682,0.683h-0.069h-0.747h-1.99c-0.376,0-0.682-0.306-0.682-0.683v-0.849v-1.588v-0.572v-1.63V73.23  c0-0.377,0.306-0.683,0.682-0.683h1.99h0.747h0.069C74.628,72.548,74.934,72.854,74.934,73.23z"></path></svg>